<svg xmlns="http://www.w3.org/2000/svg" xmlns:xlink="http://www.w3.org/1999/xlink" xmlns:lucid="lucid" width="3576" height="2511"><g transform="translate(996 1320)" lucid:page-tab-id="0_0"><path d="M-1806.87-2517.67h5484.6v3840.5h-5484.6z" fill="#21252c"/><path d="M383.13 1097.2a6 6 0 0 1 6-6h228a6 6 0 0 1 6 6v48a6 6 0 0 1-6 6h-228a6 6 0 0 1-6-6zM-81.9 178.47a.94.94 0 0 1 .95-.95.94.94 0 0 1 .95.95v58.1a.94.94 0 0 1-.95.95.94.94 0 0 1-.94-.94z" fill="none"/><path d="M142.74-1274a6 6 0 0 1 6-6h1197.88a6 6 0 0 1 6 6v148a6 6 0 0 1-6 6H148.74a6 6 0 0 1-6-6z" stroke="#0951a8" fill="#ff8f8f"/><use xlink:href="#a" transform="matrix(1,0,0,1,147.7380952380954,-1275) translate(32.405555555557385 90.52083333333317)"/><use xlink:href="#b" transform="matrix(1,0,0,1,147.7380952380954,-1275) translate(345.4766666666675 90.52083333333317)"/><use xlink:href="#c" transform="matrix(1,0,0,1,147.7380952380954,-1275) translate(709.7811111111107 90.52083333333317)"/><path d="M1140-124.46a6 6 0 0 1 6-6h211.8a6 6 0 0 1 6 6v401.54a6 6 0 0 1-6 6H1146a6 6 0 0 1-6-6z" stroke="#a9a9a9" stroke-width="2" fill="#f5fbff"/><use xlink:href="#d" transform="matrix(1,0,0,1,1152,-118.4579244875396) translate(117.505 200.59027777777777)"/><path d="M1128.8-115.18a6 6 0 0 1 6-6h211.82a6 6 0 0 1 6 6v75.67a6 6 0 0 1-6 6h-211.8a6 6 0 0 1-6-6z" stroke="#000" stroke-opacity="0" stroke-width="3" fill="#fff" fill-opacity="0"/><use xlink:href="#e" transform="matrix(1,0,0,1,1133.8095238095239,-116.17639856161361) translate(12.95185185185197 47.92083333333329)"/><use xlink:href="#f" transform="matrix(1,0,0,1,1133.8095238095239,-116.17639856161361) translate(25.359259259259364 47.92083333333329)"/><path d="M1140-27.5a6 6 0 0 1 6-6h211.8a6 6 0 0 1 6 6v320.13a6 6 0 0 1-6 6H1146a6 6 0 0 1-6-6z" stroke="#000" stroke-opacity="0" stroke-width="5" fill="#fff" fill-opacity="0"/><use xlink:href="#g" transform="matrix(1,0,0,1,1145,-28.507331894946986) translate(2.362654320987744 33.95555555555553)"/><use xlink:href="#h" transform="matrix(1,0,0,1,1145,-28.507331894946986) translate(8.383950617283986 77.77777777777773)"/><use xlink:href="#i" transform="matrix(1,0,0,1,1145,-28.507331894946986) translate(116.32098765432097 77.77777777777773)"/><use xlink:href="#j" transform="matrix(1,0,0,1,1145,-28.507331894946986) translate(36.0416666666667 114.48888888888882)"/><use xlink:href="#k" transform="matrix(1,0,0,1,1145,-28.507331894946986) translate(100.49043209876544 114.48888888888882)"/><use xlink:href="#l" transform="matrix(1,0,0,1,1145,-28.507331894946986) translate(36.72901234567905 149.42222222222216)"/><use xlink:href="#m" transform="matrix(1,0,0,1,1145,-28.507331894946986) translate(99.8030864197531 149.42222222222216)"/><use xlink:href="#n" transform="matrix(1,0,0,1,1145,-28.507331894946986) translate(60.44166666666669 187.911111111111)"/><use xlink:href="#o" transform="matrix(1,0,0,1,1145,-28.507331894946986) translate(18.590432098765476 228.17777777777766)"/><use xlink:href="#p" transform="matrix(1,0,0,1,1145,-28.507331894946986) translate(56.10740740740742 268.44444444444434)"/><use xlink:href="#q" transform="matrix(1,0,0,1,1145,-28.507331894946986) translate(55.8277777777778 308.711111111111)"/><path d="M1140.5-41.88a.5.5 0 0 1 .5-.5h220.62a.5.5 0 0 1 .5.5.5.5 0 0 1-.5.5H1141a.5.5 0 0 1-.5-.5z" stroke="#a9a9a9" fill="none"/><path d="M440-594a6 6 0 0 1 6-6h248a6 6 0 0 1 6 6v390.16a6 6 0 0 1-6 6H446a6 6 0 0 1-6-6z" stroke="#a9a9a9" stroke-width="2" fill="#f5fbff"/><path d="M450.03-296.73a6 6 0 0 1 6-6h180.6a6 6 0 0 1 6 6v53.05a6 6 0 0 1-6 6h-180.6a6 6 0 0 1-6-6zM482.13-591.4a6 6 0 0 1 6-6h180.6a6 6 0 0 1 6 6v56.95a6 6 0 0 1-6 6h-180.6a6 6 0 0 1-6-6z" stroke="#000" stroke-opacity="0" stroke-width="3" fill="#fff" fill-opacity="0"/><use xlink:href="#r" transform="matrix(1,0,0,1,487.1296296296299,-592.4008831033002) translate(22.69907407407416 44.75416666666661)"/><path d="M498.18-514a6 6 0 0 1 6-6h148.5a6 6 0 0 1 6 6v311.6a6 6 0 0 1-6 6h-148.5a6 6 0 0 1-6-6z" stroke="#000" stroke-opacity="0" stroke-width="9" fill="#fff" fill-opacity="0"/><use xlink:href="#s" transform="matrix(1,0,0,1,503.17901234567927,-515) translate(-15.219135802469054 39.48888888888896)"/><use xlink:href="#t" transform="matrix(1,0,0,1,503.17901234567927,-515) translate(16.608333333333377 93.08888888888892)"/><use xlink:href="#u" transform="matrix(1,0,0,1,503.17901234567927,-515) translate(-4.495987654320928 144.02222222222224)"/><use xlink:href="#v" transform="matrix(1,0,0,1,503.17901234567927,-515) translate(19.437962962963013 194.95555555555552)"/><use xlink:href="#w" transform="matrix(1,0,0,1,503.17901234567927,-515) translate(-26.897222222222155 245.88888888888886)"/><use xlink:href="#x" transform="matrix(1,0,0,1,503.17901234567927,-515) translate(26.040432098765464 296.82222222222214)"/><path d="M442.1-532.56a.5.5 0 0 1 .5-.5h228a.5.5 0 0 1 .5.5.5.5 0 0 1-.5.5h-228a.5.5 0 0 1-.5-.5z" stroke="#a9a9a9" fill="none"/><path d="M1600 586a6 6 0 0 1 6-6h228a6 6 0 0 1 6 6v48a6 6 0 0 1-6 6h-228a6 6 0 0 1-6-6z" stroke="#000" stroke-opacity="0" stroke-width="3" fill="#fff" fill-opacity="0"/><path d="M-125 62.7a6 6 0 0 1 6-6H69a6 6 0 0 1 6 6v177.1a6 6 0 0 1-6 6h-188a6 6 0 0 1-6-6z" stroke="#a9a9a9" stroke-width="2" fill="#f5fbff"/><path d="M-124.5 91.07a.5.5 0 0 1 .5-.5H69a.5.5 0 0 1 .5.5.5.5 0 0 1-.5.5h-193a.5.5 0 0 1-.5-.5z" stroke="#a9a9a9" fill="none"/><path d="M-139.15 55.2a6 6 0 0 1 6-6h228a6 6 0 0 1 6 6v21.9a6 6 0 0 1-6 6h-228a6 6 0 0 1-6-6z" stroke="#000" stroke-opacity="0" stroke-width="3" fill="#fff" fill-opacity="0"/><use xlink:href="#y" transform="matrix(1,0,0,1,-134.15476190476193,54.21214821949925) translate(43.47129629629637 35.7333333333333)"/><path d="M-19.15 84.56v9.66a.6.6 0 0 1-.6.6.6.6 0 0 0-.62.62v9.66" stroke="#bdf139" stroke-width="3" fill="none"/><path d="M-17.65 84.6h-3v-1.53h3zM-18.87 106.6h-3v-1.54h3z" stroke="#bdf139" stroke-width=".05" fill="#bdf139"/><path d="M-150 112.56a6 6 0 0 1 6-6H84a6 6 0 0 1 6 6v88.84a6 6 0 0 1-6 6h-228a6 6 0 0 1-6-6z" stroke="#000" stroke-opacity="0" stroke-width="3" fill="#fff" fill-opacity="0"/><use xlink:href="#z" transform="matrix(1,0,0,1,-145.00000000000003,111.5634654037479) translate(30.53333333333339 32.177777777777756)"/><use xlink:href="#A" transform="matrix(1,0,0,1,-145.00000000000003,111.5634654037479) translate(55.4200617283951 76.88888888888886)"/><use xlink:href="#B" transform="matrix(1,0,0,1,-145.00000000000003,111.5634654037479) translate(83.19753086419755 119.82222222222217)"/><use xlink:href="#C" transform="matrix(1,0,0,1,-145.00000000000003,111.5634654037479) translate(115 159.19999999999993)"/><path d="M1247.1-478.86a8.04 8.04 0 0 1 9.6 0L1359-402.5a4.48 4.48 0 0 1 0 7.17l-102.3 76.35a8.04 8.04 0 0 1-9.6 0l-102.3-76.35a4.48 4.48 0 0 1 0-7.18z" stroke="#a9a9a9" stroke-width="2" fill="#f5fbff"/><use xlink:href="#D" transform="matrix(1,0,0,1,1145,-477.4530058521674) translate(23.716666666666725 86.6)"/><path d="M-24.62-359.97a7.23 7.23 0 0 1 9.24 0l90.76 75.32a4.98 4.98 0 0 1 0 7.66l-90.76 75.33a7.23 7.23 0 0 1-9.24 0L-115.38-277a4.98 4.98 0 0 1 0-7.65z" stroke="#a9a9a9" stroke-width="2" fill="#f5fbff"/><use xlink:href="#E" transform="matrix(1,0,0,1,-115.00000000000003,-358.8019834346391) translate(47.01765432098769 85.80277777777775)"/><path d="M409.07-38.92a7.23 7.23 0 0 1 9.24 0l90.77 75.32a4.98 4.98 0 0 1 0 7.66l-90.76 75.32a7.23 7.23 0 0 1-9.23 0L318.3 44.06a4.98 4.98 0 0 1 0-7.66z" stroke="#a9a9a9" stroke-width="2" fill="#f5fbff"/><use xlink:href="#F" transform="matrix(1,0,0,1,318.69047619047615,-37.7505968441387) translate(28.716111111111143 84.02499999999998)"/><path d="M275.38-233.83a7.23 7.23 0 0 1 9.24 0l90.76 75.32a4.98 4.98 0 0 1 0 7.65l-90.76 75.32a7.23 7.23 0 0 1-9.24 0l-90.76-75.32a4.98 4.98 0 0 1 0-7.66z" stroke="#a9a9a9" stroke-width="2" fill="#f5fbff"/><use xlink:href="#G" transform="matrix(1,0,0,1,185,-232.65822784810132) translate(33.20222222222226 84.02499999999998)"/><path d="M-142.5 426a6 6 0 0 1 6-6h228a6 6 0 0 1 6 6v236.1a6 6 0 0 1-6 6h-228a6 6 0 0 1-6-6z" stroke="#a9a9a9" stroke-width="2" fill="#f5fbff"/><path d="M-142.5 426a6 6 0 0 1 6-6h228a6 6 0 0 1 6 6v41.02a6 6 0 0 1-6 6h-228a6 6 0 0 1-6-6z" stroke="#000" stroke-opacity="0" stroke-width="3" fill="#fff" fill-opacity="0"/><use xlink:href="#H" transform="matrix(1,0,0,1,-137.5,425) translate(3.981629506172908 29.4166311111111)"/><use xlink:href="#I" transform="matrix(1,0,0,1,-137.5,425) translate(155.74068641975305 29.4166311111111)"/><path d="M-152 485.56a.5.5 0 0 1 .5-.5h248a.5.5 0 0 1 .5.5.5.5 0 0 1-.5.5h-248a.5.5 0 0 1-.5-.5z" stroke="#a9a9a9" fill="none"/><path d="M-142.5 492.56a6 6 0 0 1 6-6h228a6 6 0 0 1 6 6v148a6 6 0 0 1-6 6h-228a6 6 0 0 1-6-6z" stroke="#000" stroke-opacity="0" stroke-width="3" fill="#fff" fill-opacity="0"/><use xlink:href="#J" transform="matrix(1,0,0,1,-137.5,491.5614170325921) translate(72.07414561728399 49.458297777777766)"/><use xlink:href="#K" transform="matrix(1,0,0,1,-137.5,491.5614170325921) translate(135.70366919753087 49.458297777777766)"/><use xlink:href="#L" transform="matrix(1,0,0,1,-137.5,491.5614170325921) translate(24.495000000000005 81.4582444444444)"/><use xlink:href="#M" transform="matrix(1,0,0,1,-137.5,491.5614170325921) translate(204.505 81.4582444444444)"/><use xlink:href="#N" transform="matrix(1,0,0,1,-137.5,491.5614170325921) translate(1.777966481481542 113.45819111111106)"/><use xlink:href="#O" transform="matrix(1,0,0,1,-137.5,491.5614170325921) translate(56.59268993827163 113.45819111111106)"/><use xlink:href="#P" transform="matrix(1,0,0,1,-137.5,491.5614170325921) translate(86.2222701851852 113.45819111111106)"/><path d="M-95.96 486.6h-1.65" stroke="#bdf139" stroke-width="3" fill="none"/><path d="M-93 486.62h-3v-1.54h3zM-97.58 488.1h-3v-1.54h3zm0-3.52h-3v-1.02h3z" stroke="#bdf139" stroke-width=".05" fill="#bdf139"/><path d="M702.46-398.92h438.04" stroke="#e81313" stroke-width="3" fill="none"/><path d="M702.5-397.42h-1.54v-3h1.54zM1142.1-399.93l-.1 1 .1 1.02.14.48h-1.77v-3h1.77z" stroke="#e81313" stroke-width=".05" fill="#e81313"/><path d="M1251.9-314.88v162.84" stroke="#e81313" stroke-width="3" fill="none"/><path d="M1250.75-316.45l1.15.07 1.16-.07.34-.07v1.68h-3v-1.68z" stroke="#e81313" stroke-width=".05" fill="#e81313"/><path d="M1251.9-136.28l-4.63-14.26h9.27z" stroke="#e81313" stroke-width="3" fill="#e81313"/><path d="M520.6 134.5H77.47" stroke="#e81313" stroke-width="3" fill="none"/><path d="M522.38 133.54l-.28.98-.1 1 .05.47h-1.48v-3h2.1zM77.5 136h-1.54v-3h1.53z" stroke="#e81313" stroke-width=".05" fill="#e81313"/><path d="M-19.15 47.75v-122.2a.42.42 0 0 0-.43-.43.42.42 0 0 1-.42-.42v-122.2" stroke="#e81313" stroke-width="3" fill="none"/><path d="M-17.65 49.25h-3V47.7h3zM-21.14-199.08l1.14.08 1.14-.08.36-.08v1.7h-3v-1.7z" stroke="#e81313" stroke-width=".05" fill="#e81313"/><path d="M-20-364.14v-28.78a6 6 0 0 1 6-6h451.54" stroke="#e81313" stroke-width="3" fill="none"/><path d="M-18.5-362.48l-.36-.08-1.14-.08-1.14.08-.36.08v-1.7h3zM439.04-397.42h-1.54v-3h1.54z" stroke="#e81313" stroke-width=".05" fill="#e81313"/><path d="M280-238v-27.4a6 6 0 0 1 6-6h151.56" stroke="#e81313" stroke-width="3" fill="none"/><path d="M281.5-236.34l-.36-.08-1.14-.08-1.14.08-.36.08v-1.7h3zM439.06-269.9h-1.54v-3h1.54z" stroke="#e81313" stroke-width=".05" fill="#e81313"/><path d="M314 40.23H201.72a6 6 0 0 0-6 6v24.6a6 6 0 0 1-6 6H77.42" stroke="#e81313" stroke-width="3" fill="none"/><path d="M315.6 39.2l-.1 1.03.1 1.05.12.45h-1.75v-3h1.75zM77.47 78.32h-1.54v-3h1.54z" stroke="#e81313" stroke-width=".05" fill="#e81313"/><path d="M513.38 40.23H564a6 6 0 0 0 6-6v-229.6" stroke="#e81313" stroke-width="3" fill="none"/><path d="M513.4 41.73h-1.74l.12-.45.1-1.05-.1-1.04-.12-.47h1.75zM571.5-195.34h-3v-1.54h3z" stroke="#e81313" stroke-width=".05" fill="#e81313"/><path d="M0-960.5a6 6 0 0 1 6-6h248a6 6 0 0 1 6 6v248a6 6 0 0 1-6 6H6a6 6 0 0 1-6-6z" stroke="#a9a9a9" stroke-width="2" fill="#f5fbff"/><path d="M-20-940.5a6 6 0 0 1 6-6h288a6 6 0 0 1 6 6v54.26a6 6 0 0 1-6 6H-14a6 6 0 0 1-6-6z" stroke="#000" stroke-opacity="0" stroke-width="2" fill="#fff" fill-opacity="0"/><use xlink:href="#Q" transform="matrix(1,0,0,1,-15,-941.5023228746792) translate(44.74814814814829 39.295833333333285)"/><use xlink:href="#R" transform="matrix(1,0,0,1,-15,-941.5023228746792) translate(116.462962962963 39.295833333333285)"/><use xlink:href="#S" transform="matrix(1,0,0,1,-15,-941.5023228746792) translate(220.43703703703693 39.295833333333285)"/><path d="M0-874a6 6 0 0 1 6-6h248a6 6 0 0 1 6 6v150.8a6 6 0 0 1-6 6H6a6 6 0 0 1-6-6z" stroke="#000" stroke-opacity="0" stroke-width="2" fill="#fff" fill-opacity="0"/><use xlink:href="#T" transform="matrix(1,0,0,1,5,-875.009439463853) translate(103.83672839506175 33.95555555555553)"/><use xlink:href="#U" transform="matrix(1,0,0,1,5,-875.009439463853) translate(40.17006172839514 84.88888888888883)"/><use xlink:href="#V" transform="matrix(1,0,0,1,5,-875.009439463853) translate(72.4160493827161 135.8222222222221)"/><path d="M.5-881.66a.5.5 0 0 1 .5-.5h258a.5.5 0 0 1 .5.5.5.5 0 0 1-.5.5H1a.5.5 0 0 1-.5-.5z" stroke="#a9a9a9" fill="none"/><path d="M846.27-963.94a6 6 0 0 1 6-6h228a6 6 0 0 1 6 6v254.87a6 6 0 0 1-6 6h-228a6 6 0 0 1-6-6z" stroke="#a9a9a9" stroke-width="2" fill="#f5fbff"/><path d="M843.13-952.24a6 6 0 0 1 6-6h228a6 6 0 0 1 6 6v51.6a6 6 0 0 1-6 6h-228a6 6 0 0 1-6-6z" stroke="#000" stroke-opacity="0" stroke-width="2" fill="#fff" fill-opacity="0"/><use xlink:href="#Q" transform="matrix(1,0,0,1,848.1338582677167,-953.2379790826916) translate(14.748148148148289 39.108333333333285)"/><use xlink:href="#R" transform="matrix(1,0,0,1,848.1338582677167,-953.2379790826916) translate(86.462962962963 39.108333333333285)"/><use xlink:href="#W" transform="matrix(1,0,0,1,848.1338582677167,-953.2379790826916) translate(190.43703703703693 39.108333333333285)"/><path d="M846.27-879.67a6 6 0 0 1 6-6h228a6 6 0 0 1 6 6v180.4a6 6 0 0 1-6 6h-228a6 6 0 0 1-6-6z" stroke="#000" stroke-opacity="0" stroke-width="2" fill="#fff" fill-opacity="0"/><use xlink:href="#X" transform="matrix(1,0,0,1,851.2677165354335,-880.6689895413457) translate(96.05277777777779 30.399999999999984)"/><use xlink:href="#Y" transform="matrix(1,0,0,1,851.2677165354335,-880.6689895413457) translate(49.60833333333336 75.99999999999997)"/><use xlink:href="#Z" transform="matrix(1,0,0,1,851.2677165354335,-880.6689895413457) translate(125.60833333333333 75.99999999999997)"/><use xlink:href="#aa" transform="matrix(1,0,0,1,851.2677165354335,-880.6689895413457) translate(30.608333333333377 121.59999999999994)"/><use xlink:href="#ab" transform="matrix(1,0,0,1,851.2677165354335,-880.6689895413457) translate(64.4916666666667 167.19999999999993)"/><path d="M843.63-877.8a.5.5 0 0 1 .5-.5h238a.5.5 0 0 1 .5.5.5.5 0 0 1-.5.5h-238a.5.5 0 0 1-.5-.5z" stroke="#a9a9a9" fill="none"/><path d="M570.1-896.17a7.23 7.23 0 0 1 9.24 0l90.76 75.32a4.98 4.98 0 0 1 0 7.66l-90.76 75.33a7.23 7.23 0 0 1-9.24 0l-90.76-75.32a4.98 4.98 0 0 1 0-7.65z" stroke="#a9a9a9" stroke-width="2" fill="#f5fbff"/><use xlink:href="#ac" transform="matrix(1,0,0,1,479.7222222222223,-895) translate(23.49913580246918 87.1222222222222)"/><path d="M574.72-733.7v67.37a.05.05 0 0 0 .05.05.05.05 0 0 1 .04.04v67.38" stroke="#e81313" stroke-width="3" fill="none"/><path d="M573.6-735.28l1.12.08 1.14-.08.36-.08v1.7h-3v-1.7zM576.3-597.36h-3v-1.54h3z" stroke="#e81313" stroke-width=".05" fill="#e81313"/><path d="M475.04-817.02H262.47" stroke="#e81313" stroke-width="3" fill="none"/><path d="M476.63-818.06l-.1 1.04.1 1.05.12.45H475v-3h1.75zM262.5-815.52h-1.53v-3h1.54z" stroke="#e81313" stroke-width=".05" fill="#e81313"/><path d="M674.4-817.02h169.4" stroke="#e81313" stroke-width="3" fill="none"/><path d="M674.45-815.52h-1.76l.12-.45.1-1.05-.1-1.04-.13-.46h1.75zM845.3-815.52h-1.53v-3h1.54z" stroke="#e81313" stroke-width=".05" fill="#e81313"/><path d="M627.1 55.6a8.04 8.04 0 0 1 9.6 0L739 131.93a4.48 4.48 0 0 1 0 7.18l-102.3 76.36a8.04 8.04 0 0 1-9.6 0l-102.3-76.36a4.48 4.48 0 0 1 0-7.18z" stroke="#a9a9a9" stroke-width="2" fill="#f5fbff"/><use xlink:href="#ad" transform="matrix(1,0,0,1,525,56.998981616013566) translate(21.679938271604968 86.15555555555555)"/><path d="M743.3 135.53h395.24" stroke="#e81313" stroke-width="3" fill="none"/><path d="M743.34 137.03h-1.77l.14-.48.1-1.02-.1-1-.13-.5h1.77zM1140.04 137.03h-1.54v-3h1.54z" stroke="#e81313" stroke-width=".05" fill="#e81313"/><path d="M-146.58 151.25h-202.96" stroke="#e81313" stroke-width="3" fill="none"/><path d="M-130.82 151.25l-14.26 4.63v-9.27z" stroke="#e81313" stroke-width="3" fill="#e81313"/><path d="M-349.5 152.75h-1.54v-3h1.54z" stroke="#e81313" stroke-width=".05" fill="#e81313"/><path d="M1828.33 400.53a6 6 0 0 1 6-6h238a6 6 0 0 1 6 6v168a6 6 0 0 1-6 6h-238a6 6 0 0 1-6-6z" stroke="#a9a9a9" stroke-width="2" fill="#f5fbff"/><use xlink:href="#ae" transform="matrix(1,0,0,1,1840.3333333333335,406.5309005212881) translate(80.525 82.65)"/><path d="M1845.24 407.94a6 6 0 0 1 6-6h208a6 6 0 0 1 6 6V560.6a6 6 0 0 1-6 6h-208a6 6 0 0 1-6-6z" stroke="#a9a9a9" stroke-width="2" fill="#f5fbff"/><path d="M1825.24 407a6 6 0 0 1 6-6h228a6 6 0 0 1 6 6v21.64a6 6 0 0 1-6 6h-228a6 6 0 0 1-6-6z" stroke="#000" stroke-opacity="0" stroke-width="3" fill="#fff" fill-opacity="0"/><use xlink:href="#af" transform="matrix(1,0,0,1,1830.2380952380954,405.9925742237411) translate(71.37098765432106 28.622222222222184)"/><use xlink:href="#ag" transform="matrix(1,0,0,1,1830.2380952380954,405.9925742237411) translate(81.3092592592593 28.622222222222184)"/><path d="M1845.74 434.05a.5.5 0 0 1 .5-.5h218a.5.5 0 0 1 .5.5.5.5 0 0 1-.5.5h-218a.5.5 0 0 1-.5-.5z" stroke="#a9a9a9" fill="none"/><path d="M1833.33 459.4a6 6 0 0 1 6-6h228a6 6 0 0 1 6 6v72.65a6 6 0 0 1-6 6h-228a6 6 0 0 1-6-6z" stroke="#000" stroke-opacity="0" stroke-width="3" fill="#fff" fill-opacity="0"/><use xlink:href="#ah" transform="matrix(1,0,0,1,1838.3333333333335,458.3992152962891) translate(81.07746913580249 23.28888888888888)"/><use xlink:href="#ai" transform="matrix(1,0,0,1,1838.3333333333335,458.3992152962891) translate(1.9518518518518704 58.2222222222222)"/><use xlink:href="#aj" transform="matrix(1,0,0,1,1838.3333333333335,458.3992152962891) translate(55.241358024691365 58.2222222222222)"/><use xlink:href="#ak" transform="matrix(1,0,0,1,1838.3333333333335,458.3992152962891) translate(87.58703703703704 58.2222222222222)"/><use xlink:href="#al" transform="matrix(1,0,0,1,1838.3333333333335,458.3992152962891) translate(115 93.15555555555552)"/><path d="M1820.5 64.77h-435.1" stroke="#e81313" stroke-width="3" fill="none"/><path d="M1822.1 63.76l-.1 1 .1 1.02.14.5h-1.77v-3h1.77z" stroke="#e81313" stroke-width=".05" fill="#e81313"/><path d="M1369.62 64.77l14.27-4.63v9.27z" stroke="#e81313" stroke-width="3" fill="#e81313"/><path d="M1927.1-15.17a8.04 8.04 0 0 1 9.6 0L2039 61.18a4.48 4.48 0 0 1 0 7.18l-102.3 76.36a8.04 8.04 0 0 1-9.6 0l-102.3-76.36a4.48 4.48 0 0 1 0-7.18z" stroke="#a9a9a9" stroke-width="2" fill="#f5fbff"/><path d="M1927.15-8.13a7.78 7.78 0 0 1 9.5 0l89.8 69.24a4.63 4.63 0 0 1 0 7.34l-89.8 69.24a7.78 7.78 0 0 1-9.5 0l-89.78-69.24a4.63 4.63 0 0 1 0-7.33z" stroke="#a9a9a9" stroke-width="2" fill="#f5fbff"/><use xlink:href="#am" transform="matrix(1,0,0,1,1837.6190475962221,-6.798060511248096) translate(26.185246913580283 69.52111111111111)"/><use xlink:href="#an" transform="matrix(1,0,0,1,1837.6190475962221,-6.798060511248096) translate(60.8938888888889 101.78777777777776)"/><path d="M2260-64.75a6 6 0 0 1 6-6h268a6 6 0 0 1 6 6v237.5a6 6 0 0 1-6 6h-268a6 6 0 0 1-6-6z" stroke="#a9a9a9" stroke-width="2" fill="#f5fbff"/><use xlink:href="#ao" transform="matrix(1,0,0,1,2265,-65.74973420466263) translate(118.525 126.9)"/><path d="M2280-52.8a6 6 0 0 1 6-6h228a6 6 0 0 1 6 6v213.05a6 6 0 0 1-6 6h-228a6 6 0 0 1-6-6z" stroke="#a9a9a9" stroke-width="2" fill="#f5fbff"/><path d="M2280-46.8a6 6 0 0 1 6-6h228a6 6 0 0 1 6 6v27.05a6 6 0 0 1-6 6h-228a6 6 0 0 1-6-6z" stroke="#000" stroke-opacity="0" stroke-width="3" fill="#fff" fill-opacity="0"/><g><use xlink:href="#ap" transform="matrix(1,0,0,1,2285,-47.807716492588156) translate(69.66388888888895 30.399999999999956)"/></g><path d="M2280 8.87a6 6 0 0 1 6-6h228a6 6 0 0 1 6 6v112.4a6 6 0 0 1-6 6h-228a6 6 0 0 1-6-6z" stroke="#000" stroke-opacity="0" stroke-width="3" fill="#fff" fill-opacity="0"/><g><use xlink:href="#aq" transform="matrix(1,0,0,1,2285,7.868057448363707) translate(6.50555555555556 20.977777777777778)"/><use xlink:href="#ar" transform="matrix(1,0,0,1,2285,7.868057448363707) translate(47.22283950617284 20.977777777777778)"/><use xlink:href="#as" transform="matrix(1,0,0,1,2285,7.868057448363707) translate(76.35864197530864 20.977777777777778)"/><use xlink:href="#at" transform="matrix(1,0,0,1,2285,7.868057448363707) translate(146.28456790123457 20.977777777777778)"/><use xlink:href="#au" transform="matrix(1,0,0,1,2285,7.868057448363707) translate(14.37053808641977 52.79996444444444)"/><use xlink:href="#av" transform="matrix(1,0,0,1,2285,7.868057448363707) translate(55.77787648148149 52.79996444444444)"/><use xlink:href="#aw" transform="matrix(1,0,0,1,2285,7.868057448363707) translate(92.81485179012346 52.79996444444444)"/><use xlink:href="#ax" transform="matrix(1,0,0,1,2285,7.868057448363707) translate(84.44382716049383 84.4443911111111)"/><use xlink:href="#ay" transform="matrix(1,0,0,1,2285,7.868057448363707) translate(115 115.91105777777777)"/><use xlink:href="#az" transform="matrix(1,0,0,1,2285,7.868057448363707) translate(115 147.37772444444445)"/></g><path d="M2280.5-14.75a.5.5 0 0 1 .5-.5h238a.5.5 0 0 1 .5.5.5.5 0 0 1-.5.5h-238a.5.5 0 0 1-.5-.5z" stroke="#a9a9a9" fill="none"/><path d="M2043.3 64.77h214.24" stroke="#e4240a" stroke-width="3" fill="none"/><path d="M2043.34 66.27h-1.77l.14-.5.1-1-.1-1-.13-.5h1.77zM2259.04 66.27h-1.54v-3h1.54z" stroke="#e4240a" stroke-width=".05" fill="#e4240a"/><path d="M-544 57.3a6 6 0 0 1 6-6h180a6 6 0 0 1 6 6v189.54a6 6 0 0 1-6 6h-180a6 6 0 0 1-6-6z" stroke="#a9a9a9" stroke-width="2" fill="#f5fbff"/><path d="M-544 35.2a6 6 0 0 1 6-6h180a6 6 0 0 1 6 6v102a6 6 0 0 1-6 6h-180a6 6 0 0 1-6-6z" stroke="#000" stroke-opacity="0" stroke-width="3" fill="#fff" fill-opacity="0"/><g><use xlink:href="#aA" transform="matrix(1,0,0,1,-539,34.212174886165926) translate(11.111244259259337 40.83329777777776)"/><use xlink:href="#aB" transform="matrix(1,0,0,1,-539,34.212174886165926) translate(65.1111542592593 40.83329777777776)"/><use xlink:href="#aC" transform="matrix(1,0,0,1,-539,34.212174886165926) translate(66.6296702469136 72.8332444444444)"/></g><path d="M-551.5 118.12a.5.5 0 0 1 .5-.5h198a.5.5 0 0 1 .5.5.5.5 0 0 1-.5.5h-198a.5.5 0 0 1-.5-.5z" stroke="#a9a9a9" fill="none"/><path d="M-548 122.13a6 6 0 0 1 6-6h180a6 6 0 0 1 6 6V240.1a6 6 0 0 1-6 6h-180a6 6 0 0 1-6-6z" stroke="#000" stroke-opacity="0" stroke-width="3" fill="#fff" fill-opacity="0"/><g><use xlink:href="#aD" transform="matrix(1,0,0,1,-543,121.12861499617279) translate(13.268622160493877 26.6666311111111)"/><use xlink:href="#aE" transform="matrix(1,0,0,1,-543,121.12861499617279) translate(74.28705932098767 26.6666311111111)"/><use xlink:href="#aF" transform="matrix(1,0,0,1,-543,121.12861499617279) translate(111.32404697530863 26.6666311111111)"/><use xlink:href="#aG" transform="matrix(1,0,0,1,-543,121.12861499617279) translate(26.277864074074103 66.66657777777775)"/><use xlink:href="#aH" transform="matrix(1,0,0,1,-543,121.12861499617279) translate(8.638998703703749 106.6665244444444)"/></g><path d="M280-71.36v56.8a6 6 0 0 1-6 6H41.17a6 6 0 0 0-6 6V54.2" stroke="#e81313" stroke-width="3" fill="none"/><path d="M278.86-72.94l1.14.08 1.14-.08.36-.07v1.68h-3v-1.7zM36.67 55.7h-3v-1.53h3z" stroke="#e81313" stroke-width=".05" fill="#e81313"/><path d="M700.38-419a.5.5 0 0 1 .5-.5h468a.5.5 0 0 1 .5.5.5.5 0 0 1-.5.5h-468a.5.5 0 0 1-.5-.5zM2031.7 76.3a.5.5 0 0 1 .5-.5h232.04a.5.5 0 0 1 .5.5.5.5 0 0 1-.5.5H2032.2a.5.5 0 0 1-.5-.5z" stroke="#6db1ff" fill="none"/><g><path d="M1921 140.5a.5.5 0 0 1 .5.5v258a.5.5 0 0 1-.5.5.5.5 0 0 1-.5-.5V141a.5.5 0 0 1 .5-.5z" stroke="#6db1ff" fill="none"/></g><path d="M1931.9 141.8v257.7" stroke="#e81313" stroke-width="3" fill="none"/><path d="M1930.75 140.22l1.15.08 1.16-.08.34-.07v1.7h-3v-1.7zM1933.4 401h-3v-1.55h3z" stroke="#e81313" stroke-width=".05" fill="#e81313"/><path d="M-30 267.38v150.16" stroke="#e81313" stroke-width="3" fill="none"/><path d="M-30 251.62l4.64 14.26h-9.28z" stroke="#e81313" stroke-width="3" fill="#e81313"/><path d="M-28.5 419.04h-3v-1.54h3z" stroke="#e81313" stroke-width=".05" fill="#e81313"/><path d="M440.5-529.45a.5.5 0 0 1 .5-.5h258a.5.5 0 0 1 .5.5.5.5 0 0 1-.5.5H441a.5.5 0 0 1-.5-.5z" stroke="#a9a9a9" fill="none"/><path d="M1560-426.52a6 6 0 0 1 6-6h168a6 6 0 0 1 6 6v55.2a6 6 0 0 1-6 6h-168a6 6 0 0 1-6-6z" stroke="#a9a9a9" stroke-width="2" fill="#f5fbff"/><g><use xlink:href="#aI" transform="matrix(1,0,0,1,1572,-420.519672518834) translate(5.099999999999994 25.4)"/><use xlink:href="#aJ" transform="matrix(1,0,0,1,1572,-420.519672518834) translate(48.05 25.4)"/><use xlink:href="#aK" transform="matrix(1,0,0,1,1572,-420.519672518834) translate(68.05 25.4)"/></g><path d="M1363.3-398.92h14.6m14.6 0h29.18m14.6 0h29.17m14.6 0h29.18m14.6 0h14.6" stroke="#e81313" stroke-width="3" fill="none"/><path d="M1363.34-397.42h-1.77l.14-.5.1-1-.1-1-.13-.5h1.77z" stroke="#e81313" stroke-width=".05" fill="#e81313"/><path d="M1554.18-398.92l-14.26 4.64v-9.27z" stroke="#e81313" stroke-width="3" fill="#e81313"/><path d="M530.95 366a6 6 0 0 1 6-6h189.9a6 6 0 0 1 6 6v55.2a6 6 0 0 1-6 6h-189.9a6 6 0 0 1-6-6z" stroke="#a9a9a9" stroke-width="2" fill="#f5fbff"/><g><use xlink:href="#aI" transform="matrix(1,0,0,1,542.9523809468258,372) translate(8.099999999999994 25.4)"/><use xlink:href="#aJ" transform="matrix(1,0,0,1,542.9523809468258,372) translate(51.05 25.4)"/><use xlink:href="#aL" transform="matrix(1,0,0,1,542.9523809468258,372) translate(71.05 25.4)"/></g><path d="M631.9 219.58v11.5m0 11.5v22.98m0 11.5v28.12m0 16.62v16.62" stroke="#e81313" stroke-width="3" fill="none"/><path d="M630.75 218l1.15.08 1.16-.08.34-.07v1.68h-3v-1.67z" stroke="#e81313" stroke-width=".05" fill="#e81313"/><path d="M631.9 354.18l-4.63-14.26h9.27z" stroke="#e81313" stroke-width="3" fill="#e81313"/><path d="M1845.24-234a6 6 0 0 1 6-6h168a6 6 0 0 1 6 6v55.2a6 6 0 0 1-6 6h-168a6 6 0 0 1-6-6z" stroke="#a9a9a9" stroke-width="2" fill="#f5fbff"/><g><use xlink:href="#aI" transform="matrix(1,0,0,1,1857.2380952380954,-228) translate(5.099999999999994 25.4)"/><use xlink:href="#aJ" transform="matrix(1,0,0,1,1857.2380952380954,-228) translate(48.05 25.4)"/><use xlink:href="#aK" transform="matrix(1,0,0,1,1857.2380952380954,-228) translate(68.05 25.4)"/></g><path d="M1931.9-19.27v-14.66m0-14.66v-29.3m0-14.67v-29.32m0-14.65v-14.67" stroke="#e81313" stroke-width="3" fill="none"/><path d="M1933.4-17.63l-.34-.07-1.16-.07-1.15.07-.35.07v-1.68h3z" stroke="#e81313" stroke-width=".05" fill="#e81313"/><path d="M1931.9-166.98l4.64 14.26h-9.27z" stroke="#e81313" stroke-width="3" fill="#e81313"/><defs><path fill="#5f6572" d="M657-720h158L482-269V0H350v-269C245-412 121-577 17-720h157l242 306" id="aM"/><path fill="#5f6572" d="M189-580h313c76 0 138 62 138 138v304C640-62 578 0 502 0H189C113 0 51-62 51-138v-304c0-76 62-138 138-138zm313 131H189c-4 0-7 3-7 7v304c0 4 3 7 7 7h313c4 0 7-3 7-7v-304c0-4-3-7-7-7" id="aN"/><path fill="#5f6572" d="M511-580h131v442C642-62 580 0 504 0H191C114 0 53-62 53-138v-442h131v442c0 4 3 7 7 7h313c4 0 7-3 7-7v-442" id="aO"/><path fill="#5f6572" d="M410-449H184v311c0 4 3 7 7 7h219V0H191C114 0 53-62 53-138v-632h131v190h226v131" id="aP"/><path fill="#5f6572" d="M505-580c76 0 138 62 138 138v304C643-62 581 0 505 0H54v-770h131v190h320zm7 442v-304c0-4-3-7-7-7H192c-4 0-7 3-7 7v304c0 4 3 7 7 7h313c4 0 7-3 7-7" id="aQ"/><path fill="#5f6572" d="M502-580c76 0 138 62 138 138v218H182v86c0 4 3 7 7 7h451V0H189C113 0 51-62 51-138v-304c0-76 62-138 138-138h313zM182-356h327v-86c0-4-3-7-7-7H189c-4 0-7 3-7 7v86" id="aR"/><g id="a"><use transform="matrix(0.06444444444444423,0,0,0.06444444444444423,0,0)" xlink:href="#aM"/><use transform="matrix(0.06444444444444423,0,0,0.06444444444444423,47.36666666666652,0)" xlink:href="#aN"/><use transform="matrix(0.06444444444444423,0,0,0.06444444444444423,90.35111111111081,0)" xlink:href="#aO"/><use transform="matrix(0.06444444444444423,0,0,0.06444444444444423,133.65777777777734,0)" xlink:href="#aP"/><use transform="matrix(0.06444444444444423,0,0,0.06444444444444423,161.81999999999948,0)" xlink:href="#aO"/><use transform="matrix(0.06444444444444423,0,0,0.06444444444444423,205.64222222222156,0)" xlink:href="#aQ"/><use transform="matrix(0.06444444444444423,0,0,0.06444444444444423,248.62666666666587,0)" xlink:href="#aR"/><path fill="#5f6572" d="M-3.22 3.22H316.3v3.22H-3.22z"/></g><path fill="#5f6572" d="M58-720h580c77 0 140 62 140 139v442C778-62 715 0 638 0H58v-720zm587 581v-442c0-4-3-7-7-7H197c-4 0-7 3-7 7v442c0 4 3 7 7 7h441c4 0 7-3 7-7" id="aS"/><path fill="#5f6572" d="M503-580c76 0 138 62 138 138V0H190C114 0 52-62 52-138v-218h458v-86c0-4-3-7-7-7H52v-131h451zm7 449v-93H183v86c0 4 3 7 7 7h320" id="aT"/><path fill="#5f6572" d="M499-580c85 2 147 69 138 163H506c-2-11 5-32-7-32H186c-4 0-7 3-7 7v80c0 4 3 6 7 6h313c77 0 138 62 138 138v80C637-62 576 0 499 0H186C102-2 39-69 48-163h131c2 11-5 32 7 32h313c4 0 7-3 7-7v-80c0-4-3-6-7-6H186c-76 0-138-62-138-138v-80c0-76 62-138 138-138h313" id="aU"/><g id="b"><use transform="matrix(0.06444444444444423,0,0,0.06444444444444423,0,0)" xlink:href="#aS"/><use transform="matrix(0.06444444444444423,0,0,0.06444444444444423,53.74666666666649,0)" xlink:href="#aT"/><use transform="matrix(0.06444444444444423,0,0,0.06444444444444423,98.47111111111079,0)" xlink:href="#aP"/><use transform="matrix(0.06444444444444423,0,0,0.06444444444444423,126.63333333333291,0)" xlink:href="#aT"/><use transform="matrix(0.06444444444444423,0,0,0.06444444444444423,170.13333333333276,0)" xlink:href="#aQ"/><use transform="matrix(0.06444444444444423,0,0,0.06444444444444423,213.11777777777706,0)" xlink:href="#aT"/><use transform="matrix(0.06444444444444423,0,0,0.06444444444444423,256.35999999999916,0)" xlink:href="#aU"/><use transform="matrix(0.06444444444444423,0,0,0.06444444444444423,299.85999999999905,0)" xlink:href="#aR"/><path fill="#5f6572" d="M-3.22 3.22h370.75v3.22H-3.22z"/></g><path fill="#5f6572" d="M462-408l261-312h145V0H735v-528L462-203 188-528V0H56v-720h144" id="aV"/><path fill="#5f6572" d="M505-580c76 0 138 62 138 138V0H512v-442c0-4-3-7-7-7H192c-4 0-7 3-7 7V0H54v-580h451" id="aW"/><path fill="#5f6572" d="M630 92c0 76-61 138-137 138H138V98h355c3 0 6-2 6-6V0H179C103 0 41-62 41-138v-304c0-76 62-138 138-138h314c76 0 137 62 137 138V92zM179-131h314c3 0 6-3 6-7v-304c0-4-3-7-6-7H179c-4 0-7 3-7 7v304c0 4 3 7 7 7" id="aX"/><path fill="#5f6572" d="M773-580c76 0 138 62 138 138V0H781v-442c0-4-3-7-8-7H555c-4 0-6 3-6 7V0H417v-442c0-4-3-7-6-7H192c-4 0-7 3-7 7V0H54v-580h719" id="aY"/><g id="c"><use transform="matrix(0.06444444444444423,0,0,0.06444444444444423,0,0)" xlink:href="#aV"/><use transform="matrix(0.06444444444444423,0,0,0.06444444444444423,59.80444444444425,0)" xlink:href="#aT"/><use transform="matrix(0.06444444444444423,0,0,0.06444444444444423,103.94888888888855,0)" xlink:href="#aW"/><use transform="matrix(0.06444444444444423,0,0,0.06444444444444423,148.80222222222173,0)" xlink:href="#aT"/><use transform="matrix(0.06444444444444423,0,0,0.06444444444444423,192.55999999999938,0)" xlink:href="#aX"/><use transform="matrix(0.06444444444444423,0,0,0.06444444444444423,235.09333333333257,0)" xlink:href="#aR"/><use transform="matrix(0.06444444444444423,0,0,0.06444444444444423,279.68888888888796,0)" xlink:href="#aY"/><use transform="matrix(0.06444444444444423,0,0,0.06444444444444423,340.2022222222211,0)" xlink:href="#aR"/><use transform="matrix(0.06444444444444423,0,0,0.06444444444444423,384.7977777777765,0)" xlink:href="#aW"/><use transform="matrix(0.06444444444444423,0,0,0.06444444444444423,429.65111111110974,0)" xlink:href="#aP"/><path fill="#5f6572" d="M-3.22 3.22h464.26v3.22H-3.22z"/></g><path fill="#5f6572" d="M161-211c-63 0-91 46-91 110 0 39 17 65 58 64 38-1 60-20 74-45l40 20C220-23 184 0 125 4 9 13-10-144 57-208c33-50 166-62 196-1 4 8 9 18 11 27l-48 12c-6-24-25-41-55-41" id="aZ"/><path fill="#5f6572" d="M150-105c8-23 8-54-22-51-68 7-54 98-72 156H6l50-261h50L85-158c15-20 33-36 66-36 95 0 34 128 28 194h-49" id="ba"/><path fill="#5f6572" d="M166-52c-4 17 5 29 24 23l-3 27c-30 11-74 1-67-34C105-15 91 4 56 4 23 4 3-15 2-49c0-64 63-67 128-67 10-22 3-53-29-45-13 3-22 10-25 24l-46-5c5-64 156-77 153 0-1 33-11 60-17 90zM97-88c-44-9-64 57-19 57 31 0 42-28 47-57H97" id="bb"/><path fill="#5f6572" d="M151-194c95 0 34 128 28 194h-49l25-134c0-29-45-25-59-9C67-111 69-48 56 0H6l36-190h47l-4 32c15-20 33-36 66-36" id="bc"/><path fill="#5f6572" d="M114-194c63-2 87 48 72 110H63c-3 28 1 55 31 54 21-1 32-13 37-29l44 13C160-14 137 4 91 4 41 4 11-22 11-73c0-71 33-119 103-121zm30 77c14-47-50-61-67-22-3 6-6 13-8 22h75" id="bd"/><path fill="#5f6572" d="M6 0l51-261h49L55 0H6" id="be"/><g id="f"><use transform="matrix(0.12407407407407393,0,0,0.12407407407407393,0,0)" xlink:href="#aZ"/><use transform="matrix(0.12407407407407393,0,0,0.12407407407407393,32.13518518518515,0)" xlink:href="#ba"/><use transform="matrix(0.12407407407407393,0,0,0.12407407407407393,59.30740740740734,0)" xlink:href="#bb"/><use transform="matrix(0.12407407407407393,0,0,0.12407407407407393,84.12222222222212,0)" xlink:href="#bc"/><use transform="matrix(0.12407407407407393,0,0,0.12407407407407393,111.29444444444431,0)" xlink:href="#bc"/><use transform="matrix(0.12407407407407393,0,0,0.12407407407407393,138.4666666666665,0)" xlink:href="#bd"/><use transform="matrix(0.12407407407407393,0,0,0.12407407407407393,163.28148148148128,0)" xlink:href="#be"/></g><path fill="#5f6572" d="M67-125c0 53 21 87 73 88 37 1 54-22 65-47l45 17C233-25 199 4 140 4 58 4 20-42 15-125 8-235 124-281 211-232c18 10 29 29 36 50l-46 12c-8-25-30-41-62-41-52 0-71 34-72 86" id="bf"/><path fill="#5f6572" d="M114-157C55-157 80-60 75 0H25v-261h50l-1 109c12-26 28-41 61-42 86-1 58 113 63 194h-50c-7-57 23-157-34-157" id="bg"/><path fill="#5f6572" d="M133-34C117-15 103 5 69 4 32 3 11-16 11-54c-1-60 55-63 116-61 1-26-3-47-28-47-18 1-26 9-28 27l-52-2c7-38 36-58 82-57s74 22 75 68l1 82c-1 14 12 18 25 15v27c-30 8-71 5-69-32zm-48 3c29 0 43-24 42-57-32 0-66-3-65 30 0 17 8 27 23 27" id="bh"/><path fill="#5f6572" d="M135-194c87-1 58 113 63 194h-50c-7-57 23-157-34-157-59 0-34 97-39 157H25l-1-190h47c2 12-1 28 3 38 12-26 28-41 61-42" id="bi"/><path fill="#5f6572" d="M185-48c-13 30-37 53-82 52C43 2 14-33 14-96s30-98 90-98c62 0 83 45 84 108H66c0 31 8 55 39 56 18 0 30-7 34-22zm-45-69c5-46-57-63-70-21-2 6-4 13-4 21h74" id="bj"/><path fill="#5f6572" d="M25 0v-261h50V0H25" id="bk"/><path fill="#5f6572" d="M24 0v-248h52V0H24" id="bl"/><path fill="#5f6572" d="M24-248c120-7 223 5 221 122C244-46 201 0 124 0H24v-248zM76-40c74 7 117-18 117-86 0-67-45-88-117-82v168" id="bm"/><g id="g"><use transform="matrix(0.11790123456790114,0,0,0.11790123456790114,0,0)" xlink:href="#bf"/><use transform="matrix(0.11790123456790114,0,0,0.11790123456790114,30.536419753086395,0)" xlink:href="#bg"/><use transform="matrix(0.11790123456790114,0,0,0.11790123456790114,56.35679012345675,0)" xlink:href="#bh"/><use transform="matrix(0.11790123456790114,0,0,0.11790123456790114,79.93703703703697,0)" xlink:href="#bi"/><use transform="matrix(0.11790123456790114,0,0,0.11790123456790114,105.75740740740733,0)" xlink:href="#bi"/><use transform="matrix(0.11790123456790114,0,0,0.11790123456790114,131.57777777777767,0)" xlink:href="#bj"/><use transform="matrix(0.11790123456790114,0,0,0.11790123456790114,155.1580246913579,0)" xlink:href="#bk"/><use transform="matrix(0.11790123456790114,0,0,0.11790123456790114,166.948148148148,0)" xlink:href="#bl"/><use transform="matrix(0.11790123456790114,0,0,0.11790123456790114,178.73827160493812,0)" xlink:href="#bm"/><path fill="#5f6572" d="M-2.12 2.28H211.4v4.46H-2.12z"/></g><path fill="#5f6572" d="M140-251c81 0 123 46 123 126C263-46 219 4 140 4 59 4 17-45 17-125s42-126 123-126zm0 227c63 0 89-41 89-101s-29-99-89-99c-61 0-89 39-89 99S79-25 140-24" id="bn"/><path fill="#5f6572" d="M206 0h-36l-40-164L89 0H53L-1-190h32L70-26l43-164h34l41 164 42-164h31" id="bo"/><path fill="#5f6572" d="M117-194c89-4 53 116 60 194h-32v-121c0-31-8-49-39-48C34-167 62-67 57 0H25l-1-190h30c1 10-1 24 2 32 11-22 29-35 61-36" id="bp"/><path fill="#5f6572" d="M100-194c63 0 86 42 84 106H49c0 40 14 67 53 68 26 1 43-12 49-29l28 8c-11 28-37 45-77 45C44 4 14-33 15-96c1-61 26-98 85-98zm52 81c6-60-76-77-97-28-3 7-6 17-6 28h103" id="bq"/><path fill="#5f6572" d="M114-163C36-179 61-72 57 0H25l-1-190h30c1 12-1 29 2 39 6-27 23-49 58-41v29" id="br"/><g id="h"><use transform="matrix(0.09320987654320984,0,0,0.09320987654320984,0,0)" xlink:href="#bn"/><use transform="matrix(0.09320987654320984,0,0,0.09320987654320984,26.098765432098755,0)" xlink:href="#bo"/><use transform="matrix(0.09320987654320984,0,0,0.09320987654320984,50.2401234567901,0)" xlink:href="#bp"/><use transform="matrix(0.09320987654320984,0,0,0.09320987654320984,68.88209876543206,0)" xlink:href="#bq"/><use transform="matrix(0.09320987654320984,0,0,0.09320987654320984,87.52407407407404,0)" xlink:href="#br"/></g><path fill="#5f6572" d="M190 0L58-211 59 0H30v-248h39L202-35l-2-213h31V0h-41" id="bs"/><path fill="#5f6572" d="M141-36C126-15 110 5 73 4 37 3 15-17 15-53c-1-64 63-63 125-63 3-35-9-54-41-54-24 1-41 7-42 31l-33-3c5-37 33-52 76-52 45 0 72 20 72 64v82c-1 20 7 32 28 27v20c-31 9-61-2-59-35zM48-53c0 20 12 33 32 33 41-3 63-29 60-74-43 2-92-5-92 41" id="bt"/><path fill="#5f6572" d="M210-169c-67 3-38 105-44 169h-31v-121c0-29-5-50-35-48C34-165 62-65 56 0H25l-1-190h30c1 10-1 24 2 32 10-44 99-50 107 0 11-21 27-35 58-36 85-2 47 119 55 194h-31v-121c0-29-5-49-35-48" id="bu"/><g id="i"><use transform="matrix(0.09320987654320984,0,0,0.09320987654320984,0,0)" xlink:href="#bs"/><use transform="matrix(0.09320987654320984,0,0,0.09320987654320984,24.141358024691346,0)" xlink:href="#bt"/><use transform="matrix(0.09320987654320984,0,0,0.09320987654320984,42.78333333333332,0)" xlink:href="#bu"/><use transform="matrix(0.09320987654320984,0,0,0.09320987654320984,70.65308641975307,0)" xlink:href="#bq"/></g><path fill="#5f6572" d="M63-220v92h138v28H63V0H30v-248h175v28H63" id="bv"/><path fill="#5f6572" d="M24-231v-30h32v30H24zM24 0v-190h32V0H24" id="bw"/><path fill="#5f6572" d="M135-143c-3-34-86-38-87 0 15 53 115 12 119 90S17 21 10-45l28-5c4 36 97 45 98 0-10-56-113-15-118-90-4-57 82-63 122-42 12 7 21 19 24 35" id="bx"/><path fill="#5f6572" d="M59-47c-2 24 18 29 38 22v24C64 9 27 4 27-40v-127H5v-23h24l9-43h21v43h35v23H59v120" id="by"/><g id="j"><use transform="matrix(0.08086419753086416,0,0,0.08086419753086416,0,0)" xlink:href="#bv"/><use transform="matrix(0.08086419753086416,0,0,0.08086419753086416,17.70925925925925,0)" xlink:href="#bw"/><use transform="matrix(0.08086419753086416,0,0,0.08086419753086416,24.09753086419752,0)" xlink:href="#br"/><use transform="matrix(0.08086419753086416,0,0,0.08086419753086416,33.720370370370354,0)" xlink:href="#bx"/><use transform="matrix(0.08086419753086416,0,0,0.08086419753086416,48.275925925925904,0)" xlink:href="#by"/></g><g id="k"><use transform="matrix(0.08086419753086416,0,0,0.08086419753086416,0,0)" xlink:href="#bs"/><use transform="matrix(0.08086419753086416,0,0,0.08086419753086416,20.943827160493818,0)" xlink:href="#bt"/><use transform="matrix(0.08086419753086416,0,0,0.08086419753086416,37.116666666666646,0)" xlink:href="#bu"/><use transform="matrix(0.08086419753086416,0,0,0.08086419753086416,61.295061728395034,0)" xlink:href="#bq"/></g><path fill="#5f6572" d="M30 0v-248h33v221h125V0H30" id="bz"/><g id="l"><use transform="matrix(0.08086419753086416,0,0,0.08086419753086416,0,0)" xlink:href="#bz"/><use transform="matrix(0.08086419753086416,0,0,0.08086419753086416,16.17283950617283,0)" xlink:href="#bt"/><use transform="matrix(0.08086419753086416,0,0,0.08086419753086416,32.34567901234566,0)" xlink:href="#bx"/><use transform="matrix(0.08086419753086416,0,0,0.08086419753086416,46.90123456790121,0)" xlink:href="#by"/></g><g id="m"><use transform="matrix(0.08086419753086416,0,0,0.08086419753086416,0,0)" xlink:href="#bs"/><use transform="matrix(0.08086419753086416,0,0,0.08086419753086416,20.943827160493818,0)" xlink:href="#bt"/><use transform="matrix(0.08086419753086416,0,0,0.08086419753086416,37.116666666666646,0)" xlink:href="#bu"/><use transform="matrix(0.08086419753086416,0,0,0.08086419753086416,61.295061728395034,0)" xlink:href="#bq"/></g><path fill="#5f6572" d="M143 4C61 4 22-44 18-125c-5-107 100-154 193-111 17 8 29 25 37 43l-32 9c-13-25-37-40-76-40-61 0-88 39-88 99 0 61 29 100 91 101 35 0 62-11 79-27v-45h-74v-28h105v86C228-13 192 4 143 4" id="bA"/><g id="n"><use transform="matrix(0.09320987654320984,0,0,0.09320987654320984,0,0)" xlink:href="#bA"/><use transform="matrix(0.09320987654320984,0,0,0.09320987654320984,26.098765432098755,0)" xlink:href="#bq"/><use transform="matrix(0.09320987654320984,0,0,0.09320987654320984,44.74074074074072,0)" xlink:href="#bp"/><use transform="matrix(0.09320987654320984,0,0,0.09320987654320984,63.38271604938269,0)" xlink:href="#br"/><use transform="matrix(0.09320987654320984,0,0,0.09320987654320984,74.47469135802466,0)" xlink:href="#bq"/></g><path fill="#5f6572" d="M185-189c-5-48-123-54-124 2 14 75 158 14 163 119 3 78-121 87-175 55-17-10-28-26-33-46l33-7c5 56 141 63 141-1 0-78-155-14-162-118-5-82 145-84 179-34 5 7 8 16 11 25" id="bB"/><path fill="#5f6572" d="M84 4C-5 8 30-112 23-190h32v120c0 31 7 50 39 49 72-2 45-101 50-169h31l1 190h-30c-1-10 1-25-2-33-11 22-28 36-60 37" id="bC"/><path fill="#5f6572" d="M115-194c53 0 69 39 70 98 0 66-23 100-70 100C84 3 66-7 56-30L54 0H23l1-261h32v101c10-23 28-34 59-34zm-8 174c40 0 45-34 45-75 0-40-5-75-45-74-42 0-51 32-51 76 0 43 10 73 51 73" id="bD"/><path fill="#5f6572" d="M96-169c-40 0-48 33-48 73s9 75 48 75c24 0 41-14 43-38l32 2c-6 37-31 61-74 61-59 0-76-41-82-99-10-93 101-131 147-64 4 7 5 14 7 22l-32 3c-4-21-16-35-41-35" id="bE"/><g id="o"><use transform="matrix(0.09320987654320984,0,0,0.09320987654320984,0,0)" xlink:href="#bB"/><use transform="matrix(0.09320987654320984,0,0,0.09320987654320984,22.37037037037036,0)" xlink:href="#bC"/><use transform="matrix(0.09320987654320984,0,0,0.09320987654320984,41.01234567901233,0)" xlink:href="#bD"/><use transform="matrix(0.09320987654320984,0,0,0.09320987654320984,59.654320987654295,0)" xlink:href="#bx"/><use transform="matrix(0.09320987654320984,0,0,0.09320987654320984,76.43209876543207,0)" xlink:href="#bE"/><use transform="matrix(0.09320987654320984,0,0,0.09320987654320984,93.20987654320984,0)" xlink:href="#br"/><use transform="matrix(0.09320987654320984,0,0,0.09320987654320984,104.30185185185181,0)" xlink:href="#bw"/><use transform="matrix(0.09320987654320984,0,0,0.09320987654320984,111.66543209876538,0)" xlink:href="#bD"/><use transform="matrix(0.09320987654320984,0,0,0.09320987654320984,130.30740740740734,0)" xlink:href="#bq"/><use transform="matrix(0.09320987654320984,0,0,0.09320987654320984,148.9493827160493,0)" xlink:href="#br"/><use transform="matrix(0.09320987654320984,0,0,0.09320987654320984,160.04135802469128,0)" xlink:href="#bx"/></g><path fill="#5f6572" d="M137 0h-34L2-248h35l83 218 83-218h36" id="bF"/><path fill="#5f6572" d="M85-194c31 0 48 13 60 33l-1-100h32l1 261h-30c-2-10 0-23-3-31C134-8 116 4 85 4 32 4 16-35 15-94c0-66 23-100 70-100zm9 24c-40 0-46 34-46 75 0 40 6 74 45 74 42 0 51-32 51-76 0-42-9-74-50-73" id="bG"/><path fill="#5f6572" d="M100-194c62-1 85 37 85 99 1 63-27 99-86 99S16-35 15-95c0-66 28-99 85-99zM99-20c44 1 53-31 53-75 0-43-8-75-51-75s-53 32-53 75 10 74 51 75" id="bH"/><g id="p"><use transform="matrix(0.09320987654320984,0,0,0.09320987654320984,0,0)" xlink:href="#bF"/><use transform="matrix(0.09320987654320984,0,0,0.09320987654320984,21.71790123456789,0)" xlink:href="#bw"/><use transform="matrix(0.09320987654320984,0,0,0.09320987654320984,29.081481481481468,0)" xlink:href="#bG"/><use transform="matrix(0.09320987654320984,0,0,0.09320987654320984,47.723456790123436,0)" xlink:href="#bq"/><use transform="matrix(0.09320987654320984,0,0,0.09320987654320984,66.36543209876541,0)" xlink:href="#bH"/><use transform="matrix(0.09320987654320984,0,0,0.09320987654320984,85.00740740740738,0)" xlink:href="#bx"/></g><path fill="#5f6572" d="M143 0L79-87 56-68V0H24v-261h32v163l83-92h37l-77 82L181 0h-38" id="bI"/><g id="q"><use transform="matrix(0.09320987654320984,0,0,0.09320987654320984,0,0)" xlink:href="#bB"/><use transform="matrix(0.09320987654320984,0,0,0.09320987654320984,22.37037037037036,0)" xlink:href="#by"/><use transform="matrix(0.09320987654320984,0,0,0.09320987654320984,31.691358024691343,0)" xlink:href="#br"/><use transform="matrix(0.09320987654320984,0,0,0.09320987654320984,42.78333333333332,0)" xlink:href="#bw"/><use transform="matrix(0.09320987654320984,0,0,0.09320987654320984,50.14691358024689,0)" xlink:href="#bI"/><use transform="matrix(0.09320987654320984,0,0,0.09320987654320984,66.92469135802466,0)" xlink:href="#bq"/><use transform="matrix(0.09320987654320984,0,0,0.09320987654320984,85.56666666666663,0)" xlink:href="#bx"/></g><path fill="#5f6572" d="M130 0H70L30-248h54l24 206c31-72 69-137 103-206h54" id="bJ"/><path fill="#5f6572" d="M50-224l7-37h49l-7 37H50zM6 0l37-190h49L55 0H6" id="bK"/><path fill="#5f6572" d="M132-28C118-9 101 4 69 4 30 4 10-23 10-62c0-70 24-129 92-132 31-1 47 14 56 35l19-102h49L179 0h-49zM62-69c0 22 7 39 29 39 45-2 54-45 57-90 2-27-10-40-33-40-44 0-53 48-53 91" id="bL"/><path fill="#5f6572" d="M124-194c51 0 84 22 84 74C207-44 167 4 94 4 43 4 11-23 11-74c0-74 41-120 113-120zM99-30c46 0 58-42 58-86 0-27-11-44-37-44-44 0-55 40-57 84-1 27 10 45 36 46" id="bM"/><g id="r"><use transform="matrix(0.1425925925925924,0,0,0.1425925925925924,0,0)" xlink:href="#bJ"/><use transform="matrix(0.1425925925925924,0,0,0.1425925925925924,32.36851851851848,0)" xlink:href="#bK"/><use transform="matrix(0.1425925925925924,0,0,0.1425925925925924,46.62777777777772,0)" xlink:href="#bL"/><use transform="matrix(0.1425925925925924,0,0,0.1425925925925924,77.85555555555547,0)" xlink:href="#bd"/><use transform="matrix(0.1425925925925924,0,0,0.1425925925925924,106.37407407407393,0)" xlink:href="#bM"/></g><path fill="#5f6572" d="M147 0H94L2-248h55l64 206c17-72 42-137 63-206h54" id="bN"/><path fill="#5f6572" d="M25-224v-37h50v37H25zM25 0v-190h50V0H25" id="bO"/><path fill="#5f6572" d="M88-194c31-1 46 15 58 34l-1-101h50l1 261h-48c-2-10 0-23-3-31C134-8 116 4 84 4 32 4 16-41 15-95c0-56 19-97 73-99zm17 164c33 0 40-30 41-66 1-37-9-64-41-64s-38 30-39 65c0 43 13 65 39 65" id="bP"/><path fill="#5f6572" d="M110-194c64 0 96 36 96 99 0 64-35 99-97 99-61 0-95-36-95-99 0-62 34-99 96-99zm-1 164c35 0 45-28 45-65 0-40-10-65-43-65-34 0-45 26-45 65 0 36 10 65 43 65" id="bQ"/><g id="s"><use transform="matrix(0.13641975308641963,0,0,0.13641975308641963,0,0)" xlink:href="#bN"/><use transform="matrix(0.13641975308641963,0,0,0.13641975308641963,31.785802469135774,0)" xlink:href="#bO"/><use transform="matrix(0.13641975308641963,0,0,0.13641975308641963,45.427777777777735,0)" xlink:href="#bP"/><use transform="matrix(0.13641975308641963,0,0,0.13641975308641963,75.30370370370363,0)" xlink:href="#bj"/><use transform="matrix(0.13641975308641963,0,0,0.13641975308641963,102.58765432098755,0)" xlink:href="#bQ"/><use transform="matrix(0.13641975308641963,0,0,0.13641975308641963,132.46358024691347,0)" xlink:href="#bl"/><use transform="matrix(0.13641975308641963,0,0,0.13641975308641963,146.10555555555544,0)" xlink:href="#bm"/><path fill="#5f6572" d="M-2.46 2.64H183.9V7.8H-2.47z"/></g><g id="t"><use transform="matrix(0.11790123456790115,0,0,0.11790123456790115,0,0)" xlink:href="#bA"/><use transform="matrix(0.11790123456790115,0,0,0.11790123456790115,33.01234567901232,0)" xlink:href="#bq"/><use transform="matrix(0.11790123456790115,0,0,0.11790123456790115,56.59259259259255,0)" xlink:href="#bp"/><use transform="matrix(0.11790123456790115,0,0,0.11790123456790115,80.17283950617278,0)" xlink:href="#br"/><use transform="matrix(0.11790123456790115,0,0,0.11790123456790115,94.20308641975302,0)" xlink:href="#bq"/></g><path fill="#5f6572" d="M30-248c118-7 216 8 213 122C240-48 200 0 122 0H30v-248zM63-27c89 8 146-16 146-99s-60-101-146-95v194" id="bR"/><g id="u"><use transform="matrix(0.11790123456790115,0,0,0.11790123456790115,0,0)" xlink:href="#bR"/><use transform="matrix(0.11790123456790115,0,0,0.11790123456790115,30.5364197530864,0)" xlink:href="#bC"/><use transform="matrix(0.11790123456790115,0,0,0.11790123456790115,54.11666666666663,0)" xlink:href="#br"/><use transform="matrix(0.11790123456790115,0,0,0.11790123456790115,68.14691358024687,0)" xlink:href="#bt"/><use transform="matrix(0.11790123456790115,0,0,0.11790123456790115,91.7271604938271,0)" xlink:href="#by"/><use transform="matrix(0.11790123456790115,0,0,0.11790123456790115,103.51728395061721,0)" xlink:href="#bw"/><use transform="matrix(0.11790123456790115,0,0,0.11790123456790115,112.8314814814814,0)" xlink:href="#bH"/><use transform="matrix(0.11790123456790115,0,0,0.11790123456790115,136.41172839506163,0)" xlink:href="#bp"/></g><g id="v"><use transform="matrix(0.11790123456790115,0,0,0.11790123456790115,0,0)" xlink:href="#bF"/><use transform="matrix(0.11790123456790115,0,0,0.11790123456790115,27.470987654320968,0)" xlink:href="#bw"/><use transform="matrix(0.11790123456790115,0,0,0.11790123456790115,36.785185185185156,0)" xlink:href="#bq"/><use transform="matrix(0.11790123456790115,0,0,0.11790123456790115,60.36543209876538,0)" xlink:href="#bo"/><use transform="matrix(0.11790123456790115,0,0,0.11790123456790115,90.90185185185177,0)" xlink:href="#bx"/></g><path fill="#5f6572" d="M212-179c-10-28-35-45-73-45-59 0-87 40-87 99 0 60 29 101 89 101 43 0 62-24 78-52l27 14C228-24 195 4 139 4 59 4 22-46 18-125c-6-104 99-153 187-111 19 9 31 26 39 46" id="bS"/><g id="w"><use transform="matrix(0.11790123456790115,0,0,0.11790123456790115,0,0)" xlink:href="#bS"/><use transform="matrix(0.11790123456790115,0,0,0.11790123456790115,30.5364197530864,0)" xlink:href="#bH"/><use transform="matrix(0.11790123456790115,0,0,0.11790123456790115,54.11666666666663,0)" xlink:href="#bu"/><use transform="matrix(0.11790123456790115,0,0,0.11790123456790115,89.36913580246907,0)" xlink:href="#bu"/><use transform="matrix(0.11790123456790115,0,0,0.11790123456790115,124.62160493827152,0)" xlink:href="#bq"/><use transform="matrix(0.11790123456790115,0,0,0.11790123456790115,148.20185185185176,0)" xlink:href="#bp"/><use transform="matrix(0.11790123456790115,0,0,0.11790123456790115,171.78209876543198,0)" xlink:href="#by"/><use transform="matrix(0.11790123456790115,0,0,0.11790123456790115,183.5722222222221,0)" xlink:href="#bx"/></g><g id="x"><use transform="matrix(0.11790123456790115,0,0,0.11790123456790115,0,0)" xlink:href="#bz"/><use transform="matrix(0.11790123456790115,0,0,0.11790123456790115,23.58024691358023,0)" xlink:href="#bw"/><use transform="matrix(0.11790123456790115,0,0,0.11790123456790115,32.89444444444442,0)" xlink:href="#bI"/><use transform="matrix(0.11790123456790115,0,0,0.11790123456790115,54.116666666666625,0)" xlink:href="#bq"/><use transform="matrix(0.11790123456790115,0,0,0.11790123456790115,77.69691358024686,0)" xlink:href="#bx"/></g><path fill="#5f6572" d="M231 0h-52l-39-155L100 0H48L-1-190h46L77-45c9-52 24-97 36-145h53l37 145 32-145h46" id="bT"/><path fill="#5f6572" d="M135-150c-39-12-60 13-60 57V0H25l-1-190h47c2 13-1 29 3 40 6-28 27-53 61-41v41" id="bU"/><g id="y"><use transform="matrix(0.12407407407407395,0,0,0.12407407407407395,0,0)" xlink:href="#bN"/><use transform="matrix(0.12407407407407395,0,0,0.12407407407407395,28.90925925925923,0)" xlink:href="#bO"/><use transform="matrix(0.12407407407407395,0,0,0.12407407407407395,41.31666666666662,0)" xlink:href="#bj"/><use transform="matrix(0.12407407407407395,0,0,0.12407407407407395,66.13148148148142,0)" xlink:href="#bT"/><use transform="matrix(0.12407407407407395,0,0,0.12407407407407395,100.87222222222212,0)" xlink:href="#bj"/><use transform="matrix(0.12407407407407395,0,0,0.12407407407407395,125.6870370370369,0)" xlink:href="#bU"/></g><g id="z"><use transform="matrix(0.11172839506172831,0,0,0.11172839506172831,0,0)" xlink:href="#bN"/><use transform="matrix(0.11172839506172831,0,0,0.11172839506172831,26.032716049382696,0)" xlink:href="#bO"/><use transform="matrix(0.11172839506172831,0,0,0.11172839506172831,37.20555555555553,0)" xlink:href="#bj"/><use transform="matrix(0.11172839506172831,0,0,0.11172839506172831,59.55123456790119,0)" xlink:href="#bT"/><use transform="matrix(0.11172839506172831,0,0,0.11172839506172831,90.83518518518511,0)" xlink:href="#bj"/><use transform="matrix(0.11172839506172831,0,0,0.11172839506172831,113.18086419753078,0)" xlink:href="#bU"/><use transform="matrix(0.11172839506172831,0,0,0.11172839506172831,128.82283950617276,0)" xlink:href="#bl"/><use transform="matrix(0.11172839506172831,0,0,0.11172839506172831,139.9956790123456,0)" xlink:href="#bm"/><path fill="#5f6572" d="M-2 2.16h172.95v4.22H-2z"/><path fill="#5f6572" d="M167.14 1.92h3.58v3.76h-3.58z"/></g><g id="A"><use transform="matrix(0.09938271604938267,0,0,0.09938271604938267,0,0)" xlink:href="#bA"/><use transform="matrix(0.09938271604938267,0,0,0.09938271604938267,27.827160493827147,0)" xlink:href="#bq"/><use transform="matrix(0.09938271604938267,0,0,0.09938271604938267,47.70370370370368,0)" xlink:href="#bp"/><use transform="matrix(0.09938271604938267,0,0,0.09938271604938267,67.58024691358021,0)" xlink:href="#bG"/><use transform="matrix(0.09938271604938267,0,0,0.09938271604938267,87.45679012345674,0)" xlink:href="#bq"/><use transform="matrix(0.09938271604938267,0,0,0.09938271604938267,107.33333333333327,0)" xlink:href="#br"/></g><path fill="#5f6572" d="M205 0l-28-72H64L36 0H1l101-248h38L239 0h-34zm-38-99l-47-123c-12 45-31 82-46 123h93" id="bV"/><path fill="#5f6572" d="M177-190C167-65 218 103 67 71c-23-6-38-20-44-43l32-5c15 47 100 32 89-28v-30C133-14 115 1 83 1 29 1 15-40 15-95c0-56 16-97 71-98 29-1 48 16 59 35 1-10 0-23 2-32h30zM94-22c36 0 50-32 50-73 0-42-14-75-50-75-39 0-46 34-46 75s6 73 46 73" id="bW"/><g id="B"><use transform="matrix(0.09938271604938267,0,0,0.09938271604938267,0,0)" xlink:href="#bV"/><use transform="matrix(0.09938271604938267,0,0,0.09938271604938267,23.85185185185184,0)" xlink:href="#bW"/><use transform="matrix(0.09938271604938267,0,0,0.09938271604938267,43.72839506172838,0)" xlink:href="#bq"/></g><path fill="#5f6572" d="M30-248c87 1 191-15 191 75 0 78-77 80-158 76V0H30v-248zm33 125c57 0 124 11 124-50 0-59-68-47-124-48v98" id="bX"/><path fill="#5f6572" d="M24 0v-261h32V0H24" id="bY"/><path fill="#5f6572" d="M106-169C34-169 62-67 57 0H25v-261h32l-1 103c12-21 28-36 61-36 89 0 53 116 60 194h-32v-121c2-32-8-49-39-48" id="bZ"/><g id="D"><use transform="matrix(0.1055555555555555,0,0,0.1055555555555555,0,0)" xlink:href="#bX"/><use transform="matrix(0.1055555555555555,0,0,0.1055555555555555,25.33333333333332,0)" xlink:href="#bC"/><use transform="matrix(0.1055555555555555,0,0,0.1055555555555555,46.44444444444442,0)" xlink:href="#bD"/><use transform="matrix(0.1055555555555555,0,0,0.1055555555555555,67.55555555555551,0)" xlink:href="#bY"/><use transform="matrix(0.1055555555555555,0,0,0.1055555555555555,75.8944444444444,0)" xlink:href="#bw"/><use transform="matrix(0.1055555555555555,0,0,0.1055555555555555,84.23333333333329,0)" xlink:href="#bx"/><use transform="matrix(0.1055555555555555,0,0,0.1055555555555555,103.23333333333328,0)" xlink:href="#bZ"/><use transform="matrix(0.1055555555555555,0,0,0.1055555555555555,124.34444444444438,0)" xlink:href="#bq"/><use transform="matrix(0.1055555555555555,0,0,0.1055555555555555,145.45555555555546,0)" xlink:href="#bG"/></g><g id="E"><use transform="matrix(0.11172839506172831,0,0,0.11172839506172831,0,0)" xlink:href="#bz"/><use transform="matrix(0.11172839506172831,0,0,0.11172839506172831,22.345679012345663,0)" xlink:href="#bw"/><use transform="matrix(0.11172839506172831,0,0,0.11172839506172831,31.1722222222222,0)" xlink:href="#bI"/><use transform="matrix(0.11172839506172831,0,0,0.11172839506172831,51.283333333333296,0)" xlink:href="#bq"/><use transform="matrix(0.11172839506172831,0,0,0.11172839506172831,73.62901234567896,0)" xlink:href="#bG"/></g><g id="F"><use transform="matrix(0.1055555555555555,0,0,0.1055555555555555,0,0)" xlink:href="#bR"/><use transform="matrix(0.1055555555555555,0,0,0.1055555555555555,27.338888888888874,0)" xlink:href="#bw"/><use transform="matrix(0.1055555555555555,0,0,0.1055555555555555,35.67777777777776,0)" xlink:href="#bx"/><use transform="matrix(0.1055555555555555,0,0,0.1055555555555555,54.67777777777775,0)" xlink:href="#bY"/><use transform="matrix(0.1055555555555555,0,0,0.1055555555555555,63.01666666666663,0)" xlink:href="#bw"/><use transform="matrix(0.1055555555555555,0,0,0.1055555555555555,71.35555555555553,0)" xlink:href="#bI"/><use transform="matrix(0.1055555555555555,0,0,0.1055555555555555,90.35555555555551,0)" xlink:href="#bq"/><use transform="matrix(0.1055555555555555,0,0,0.1055555555555555,111.46666666666661,0)" xlink:href="#bG"/></g><g id="G"><use transform="matrix(0.1055555555555555,0,0,0.1055555555555555,0,0)" xlink:href="#bF"/><use transform="matrix(0.1055555555555555,0,0,0.1055555555555555,24.594444444444434,0)" xlink:href="#bw"/><use transform="matrix(0.1055555555555555,0,0,0.1055555555555555,32.93333333333332,0)" xlink:href="#bq"/><use transform="matrix(0.1055555555555555,0,0,0.1055555555555555,54.04444444444443,0)" xlink:href="#bo"/><use transform="matrix(0.1055555555555555,0,0,0.1055555555555555,81.3833333333333,0)" xlink:href="#bq"/><use transform="matrix(0.1055555555555555,0,0,0.1055555555555555,102.4944444444444,0)" xlink:href="#bG"/></g><path fill="#5f6572" d="M24-248c93 1 206-16 204 79-1 75-69 88-152 82V0H24v-248zm52 121c47 0 100 7 100-41 0-47-54-39-100-39v80" id="ca"/><path fill="#5f6572" d="M220-157c-53 9-28 100-34 157h-49v-107c1-27-5-49-29-50C55-147 81-57 75 0H25l-1-190h47c2 12-1 28 3 38 10-53 101-56 108 0 13-22 24-43 59-42 82 1 51 116 57 194h-49v-107c-1-25-5-48-29-50" id="cb"/><path fill="#5f6572" d="M85 4C-2 5 27-109 22-190h50c7 57-23 150 33 157 60-5 35-97 40-157h50l1 190h-47c-2-12 1-28-3-38-12 25-28 42-61 42" id="cc"/><g id="H"><use transform="matrix(0.09259246913580242,0,0,0.09259246913580242,0,0)" xlink:href="#ca"/><use transform="matrix(0.09259246913580242,0,0,0.09259246913580242,22.22219259259258,0)" xlink:href="#bU"/><use transform="matrix(0.09259246913580242,0,0,0.09259246913580242,35.18513827160492,0)" xlink:href="#bj"/><use transform="matrix(0.09259246913580242,0,0,0.09259246913580242,53.703632098765404,0)" xlink:href="#cb"/><use transform="matrix(0.09259246913580242,0,0,0.09259246913580242,83.33322222222218,0)" xlink:href="#bO"/><use transform="matrix(0.09259246913580242,0,0,0.09259246913580242,92.59246913580242,0)" xlink:href="#cc"/><use transform="matrix(0.09259246913580242,0,0,0.09259246913580242,112.87021987654315,0)" xlink:href="#cb"/></g><path fill="#5f6572" d="M137-138c1-29-70-34-71-4 15 46 118 7 119 86 1 83-164 76-172 9l43-7c4 19 20 25 44 25 33 8 57-30 24-41C81-84 22-81 20-136c-2-80 154-74 161-7" id="cd"/><g id="I"><use transform="matrix(0.09259246913580242,0,0,0.09259246913580242,0,0)" xlink:href="#cc"/><use transform="matrix(0.09259246913580242,0,0,0.09259246913580242,20.277750740740732,0)" xlink:href="#cd"/><use transform="matrix(0.09259246913580242,0,0,0.09259246913580242,38.79624456790121,0)" xlink:href="#bj"/><use transform="matrix(0.09259246913580242,0,0,0.09259246913580242,57.314738395061696,0)" xlink:href="#bU"/></g><g id="J"><use transform="matrix(0.0740739506172839,0,0,0.0740739506172839,0,0)" xlink:href="#bR"/><use transform="matrix(0.0740739506172839,0,0,0.0740739506172839,19.185153209876532,0)" xlink:href="#bt"/><use transform="matrix(0.0740739506172839,0,0,0.0740739506172839,33.99994333333331,0)" xlink:href="#by"/><use transform="matrix(0.0740739506172839,0,0,0.0740739506172839,41.4073383950617,0)" xlink:href="#bq"/></g><path fill="#5f6572" d="M101-234c-31-9-42 10-38 44h38v23H63V0H32v-167H5v-23h27c-7-52 17-82 69-68v24" id="ce"/><g id="K"><use transform="matrix(0.0740739506172839,0,0,0.0740739506172839,0,0)" xlink:href="#bH"/><use transform="matrix(0.0740739506172839,0,0,0.0740739506172839,14.814790123456781,0)" xlink:href="#ce"/></g><path fill="#5f6572" d="M115-194c55 1 70 41 70 98S169 2 115 4C84 4 66-9 55-30l1 105H24l-1-265h31l2 30c10-21 28-34 59-34zm-8 174c40 0 45-34 45-75s-6-73-45-74c-42 0-51 32-51 76 0 43 10 73 51 73" id="cf"/><g id="L"><use transform="matrix(0.0740739506172839,0,0,0.0740739506172839,0,0)" xlink:href="#bB"/><use transform="matrix(0.0740739506172839,0,0,0.0740739506172839,17.777748148148138,0)" xlink:href="#bC"/><use transform="matrix(0.0740739506172839,0,0,0.0740739506172839,32.59253827160492,0)" xlink:href="#bD"/><use transform="matrix(0.0740739506172839,0,0,0.0740739506172839,47.407328395061704,0)" xlink:href="#bx"/><use transform="matrix(0.0740739506172839,0,0,0.0740739506172839,60.740639506172805,0)" xlink:href="#bE"/><use transform="matrix(0.0740739506172839,0,0,0.0740739506172839,74.07395061728391,0)" xlink:href="#br"/><use transform="matrix(0.0740739506172839,0,0,0.0740739506172839,82.8887507407407,0)" xlink:href="#bw"/><use transform="matrix(0.0740739506172839,0,0,0.0740739506172839,88.74059283950614,0)" xlink:href="#cf"/><use transform="matrix(0.0740739506172839,0,0,0.0740739506172839,103.55538296296291,0)" xlink:href="#by"/><use transform="matrix(0.0740739506172839,0,0,0.0740739506172839,110.9627780246913,0)" xlink:href="#bw"/><use transform="matrix(0.0740739506172839,0,0,0.0740739506172839,116.81462012345673,0)" xlink:href="#bH"/><use transform="matrix(0.0740739506172839,0,0,0.0740739506172839,131.62941024691352,0)" xlink:href="#bp"/></g><path fill="#5f6572" d="M30 0v-248h187v28H63v79h144v27H63v87h162V0H30" id="cg"/><g id="N"><use transform="matrix(0.0740739506172839,0,0,0.0740739506172839,0,0)" xlink:href="#cg"/><use transform="matrix(0.0740739506172839,0,0,0.0740739506172839,17.777748148148138,0)" xlink:href="#bp"/><use transform="matrix(0.0740739506172839,0,0,0.0740739506172839,32.59253827160492,0)" xlink:href="#bG"/></g><g id="O"><use transform="matrix(0.0740739506172839,0,0,0.0740739506172839,0,0)" xlink:href="#bH"/><use transform="matrix(0.0740739506172839,0,0,0.0740739506172839,14.814790123456781,0)" xlink:href="#ce"/></g><g id="P"><use transform="matrix(0.0740739506172839,0,0,0.0740739506172839,0,0)" xlink:href="#bx"/><use transform="matrix(0.0740739506172839,0,0,0.0740739506172839,13.333311111111103,0)" xlink:href="#bC"/><use transform="matrix(0.0740739506172839,0,0,0.0740739506172839,28.148101234567882,0)" xlink:href="#bD"/><use transform="matrix(0.0740739506172839,0,0,0.0740739506172839,42.96289135802466,0)" xlink:href="#bx"/><use transform="matrix(0.0740739506172839,0,0,0.0740739506172839,56.296202469135764,0)" xlink:href="#bE"/><use transform="matrix(0.0740739506172839,0,0,0.0740739506172839,69.62951358024686,0)" xlink:href="#br"/><use transform="matrix(0.0740739506172839,0,0,0.0740739506172839,78.44431370370364,0)" xlink:href="#bw"/><use transform="matrix(0.0740739506172839,0,0,0.0740739506172839,84.29615580246906,0)" xlink:href="#cf"/><use transform="matrix(0.0740739506172839,0,0,0.0740739506172839,99.11094592592585,0)" xlink:href="#by"/><use transform="matrix(0.0740739506172839,0,0,0.0740739506172839,106.51834098765424,0)" xlink:href="#bw"/><use transform="matrix(0.0740739506172839,0,0,0.0740739506172839,112.37018308641967,0)" xlink:href="#bH"/><use transform="matrix(0.0740739506172839,0,0,0.0740739506172839,127.18497320987646,0)" xlink:href="#bp"/></g><path fill="#5f6572" d="M183 0l-10-63H79L44 0H-7l138-248h61L234 0h-51zm-14-102l-15-108c-16 38-36 73-55 108h70" id="ch"/><g id="Q"><use transform="matrix(0.1240740740740739,0,0,0.1240740740740739,0,0)" xlink:href="#ch"/><use transform="matrix(0.1240740740740739,0,0,0.1240740740740739,32.13518518518514,0)" xlink:href="#bL"/></g><path fill="#5f6572" d="M72-63c-8 23 5 39 32 30L98-1C54 14 12-6 23-64l18-93H15l7-33h28l24-45h31l-8 45h35l-6 33H90" id="ci"/><path fill="#5f6572" d="M100 10C77 47 50 87-15 72l7-35c37 9 51-18 65-41L20-190h51L89-44l73-146h53" id="cj"/><path fill="#5f6572" d="M156-122c2-23-7-37-28-37-47 0-58 44-58 89 0 24 12 40 36 40 43 0 47-49 50-92zM-8 75l50-265h48c0 10-3 24-3 30 22-50 127-45 121 29-6 73-21 135-92 135-29 0-46-14-55-35L41 75H-8" id="ck"/><g id="R"><use transform="matrix(0.1240740740740739,0,0,0.1240740740740739,0,0)" xlink:href="#ci"/><use transform="matrix(0.1240740740740739,0,0,0.1240740740740739,14.764814814814795,0)" xlink:href="#cj"/><use transform="matrix(0.1240740740740739,0,0,0.1240740740740739,39.57962962962958,0)" xlink:href="#ck"/><use transform="matrix(0.1240740740740739,0,0,0.1240740740740739,66.75185185185177,0)" xlink:href="#bd"/></g><path fill="#5f6572" d="M6 0l7-41h62l31-161-67 37 8-42 70-41h48L124-41h57l-8 41H6" id="cl"/><use transform="matrix(0.1240740740740739,0,0,0.1240740740740739,0,0)" xlink:href="#cl" id="S"/><g id="T"><use transform="matrix(0.11790123456790114,0,0,0.11790123456790114,0,0)" xlink:href="#bl"/><use transform="matrix(0.11790123456790114,0,0,0.11790123456790114,11.790123456790113,0)" xlink:href="#bm"/><path fill="#5f6572" d="M-2.12 2.28h46.57v4.46H-2.12z"/></g><path fill="#5f6572" d="M233-177c-1 41-23 64-60 70L243 0h-38l-65-103H63V0H30v-248c88 3 205-21 203 71zM63-129c60-2 137 13 137-47 0-61-80-42-137-45v92" id="cm"/><path fill="#5f6572" d="M108 0H70L1-190h34L89-25l56-165h34" id="cn"/><g id="U"><use transform="matrix(0.11790123456790114,0,0,0.11790123456790114,0,0)" xlink:href="#cm"/><use transform="matrix(0.11790123456790114,0,0,0.11790123456790114,30.536419753086395,0)" xlink:href="#bq"/><use transform="matrix(0.11790123456790114,0,0,0.11790123456790114,54.11666666666662,0)" xlink:href="#cn"/><use transform="matrix(0.11790123456790114,0,0,0.11790123456790114,75.33888888888882,0)" xlink:href="#bq"/><use transform="matrix(0.11790123456790114,0,0,0.11790123456790114,98.91913580246904,0)" xlink:href="#bp"/><use transform="matrix(0.11790123456790114,0,0,0.11790123456790114,122.49938271604928,0)" xlink:href="#bC"/><use transform="matrix(0.11790123456790114,0,0,0.11790123456790114,146.0796296296295,0)" xlink:href="#bq"/></g><g id="V"><use transform="matrix(0.11790123456790114,0,0,0.11790123456790114,0,0)" xlink:href="#bF"/><use transform="matrix(0.11790123456790114,0,0,0.11790123456790114,25.112962962962943,0)" xlink:href="#bt"/><use transform="matrix(0.11790123456790114,0,0,0.11790123456790114,48.693209876543165,0)" xlink:href="#bY"/><use transform="matrix(0.11790123456790114,0,0,0.11790123456790114,58.00740740740736,0)" xlink:href="#bC"/><use transform="matrix(0.11790123456790114,0,0,0.11790123456790114,81.58765432098758,0)" xlink:href="#bq"/></g><path fill="#5f6572" d="M121-251c83 0 93 87 42 126-35 27-77 48-103 84h115l-7 41H-6C6-94 102-103 141-168c11-20 3-46-24-44-23 2-33 13-39 32l-47-10c12-38 39-61 90-61" id="co"/><use transform="matrix(0.1240740740740739,0,0,0.1240740740740739,0,0)" xlink:href="#co" id="W"/><g id="X"><use transform="matrix(0.1055555555555555,0,0,0.1055555555555555,0,0)" xlink:href="#bl"/><use transform="matrix(0.1055555555555555,0,0,0.1055555555555555,10.55555555555555,0)" xlink:href="#bm"/><path fill="#5f6572" d="M-1.9 2.04h41.7v4H-1.9z"/></g><path fill="#5f6572" d="M179-190L93 31C79 59 56 82 12 73V49c39 6 53-20 64-50L1-190h34L92-34l54-156h33" id="cp"/><g id="Y"><use transform="matrix(0.1055555555555555,0,0,0.1055555555555555,0,0)" xlink:href="#bX"/><use transform="matrix(0.1055555555555555,0,0,0.1055555555555555,25.33333333333332,0)" xlink:href="#bt"/><use transform="matrix(0.1055555555555555,0,0,0.1055555555555555,46.44444444444442,0)" xlink:href="#cp"/></g><g id="Z"><use transform="matrix(0.1055555555555555,0,0,0.1055555555555555,0,0)" xlink:href="#cf"/><use transform="matrix(0.1055555555555555,0,0,0.1055555555555555,21.1111111111111,0)" xlink:href="#bq"/><use transform="matrix(0.1055555555555555,0,0,0.1055555555555555,42.2222222222222,0)" xlink:href="#br"/></g><path fill="#5f6572" d="M127-220V0H93v-220H8v-28h204v28h-85" id="cq"/><g id="aa"><use transform="matrix(0.1055555555555555,0,0,0.1055555555555555,0,0)" xlink:href="#cq"/><use transform="matrix(0.1055555555555555,0,0,0.1055555555555555,23.116666666666653,0)" xlink:href="#bZ"/><use transform="matrix(0.1055555555555555,0,0,0.1055555555555555,44.22777777777775,0)" xlink:href="#bH"/><use transform="matrix(0.1055555555555555,0,0,0.1055555555555555,65.33888888888885,0)" xlink:href="#bC"/><use transform="matrix(0.1055555555555555,0,0,0.1055555555555555,86.44999999999995,0)" xlink:href="#bx"/><use transform="matrix(0.1055555555555555,0,0,0.1055555555555555,105.44999999999993,0)" xlink:href="#bt"/><use transform="matrix(0.1055555555555555,0,0,0.1055555555555555,126.56111111111102,0)" xlink:href="#bp"/><use transform="matrix(0.1055555555555555,0,0,0.1055555555555555,147.67222222222213,0)" xlink:href="#bG"/></g><g id="ab"><use transform="matrix(0.1055555555555555,0,0,0.1055555555555555,0,0)" xlink:href="#bS"/><use transform="matrix(0.1055555555555555,0,0,0.1055555555555555,27.338888888888874,0)" xlink:href="#bY"/><use transform="matrix(0.1055555555555555,0,0,0.1055555555555555,35.67777777777776,0)" xlink:href="#bw"/><use transform="matrix(0.1055555555555555,0,0,0.1055555555555555,44.01666666666665,0)" xlink:href="#bE"/><use transform="matrix(0.1055555555555555,0,0,0.1055555555555555,63.01666666666663,0)" xlink:href="#bI"/><use transform="matrix(0.1055555555555555,0,0,0.1055555555555555,82.01666666666662,0)" xlink:href="#bx"/></g><g id="ac"><use transform="matrix(0.09938271604938267,0,0,0.09938271604938267,0,0)" xlink:href="#cm"/><use transform="matrix(0.09938271604938267,0,0,0.09938271604938267,25.740123456790112,0)" xlink:href="#bq"/><use transform="matrix(0.09938271604938267,0,0,0.09938271604938267,45.616666666666646,0)" xlink:href="#cn"/><use transform="matrix(0.09938271604938267,0,0,0.09938271604938267,63.50555555555553,0)" xlink:href="#bq"/><use transform="matrix(0.09938271604938267,0,0,0.09938271604938267,83.38209876543206,0)" xlink:href="#bp"/><use transform="matrix(0.09938271604938267,0,0,0.09938271604938267,103.25864197530859,0)" xlink:href="#bC"/><use transform="matrix(0.09938271604938267,0,0,0.09938271604938267,123.13518518518511,0)" xlink:href="#bq"/></g><g id="ad"><use transform="matrix(0.09938271604938267,0,0,0.09938271604938267,0,0)" xlink:href="#bB"/><use transform="matrix(0.09938271604938267,0,0,0.09938271604938267,23.85185185185184,0)" xlink:href="#bC"/><use transform="matrix(0.09938271604938267,0,0,0.09938271604938267,43.72839506172838,0)" xlink:href="#bD"/><use transform="matrix(0.09938271604938267,0,0,0.09938271604938267,63.60493827160491,0)" xlink:href="#bx"/><use transform="matrix(0.09938271604938267,0,0,0.09938271604938267,81.4938271604938,0)" xlink:href="#bE"/><use transform="matrix(0.09938271604938267,0,0,0.09938271604938267,99.38271604938268,0)" xlink:href="#br"/><use transform="matrix(0.09938271604938267,0,0,0.09938271604938267,111.20925925925921,0)" xlink:href="#bw"/><use transform="matrix(0.09938271604938267,0,0,0.09938271604938267,119.06049382716044,0)" xlink:href="#bD"/><use transform="matrix(0.09938271604938267,0,0,0.09938271604938267,138.937037037037,0)" xlink:href="#bq"/><use transform="matrix(0.09938271604938267,0,0,0.09938271604938267,158.81358024691352,0)" xlink:href="#br"/></g><g id="ae"><use transform="matrix(0.05,0,0,0.05,0,0)" xlink:href="#bX"/><use transform="matrix(0.05,0,0,0.05,12,0)" xlink:href="#br"/><use transform="matrix(0.05,0,0,0.05,17.95,0)" xlink:href="#bH"/><use transform="matrix(0.05,0,0,0.05,27.950000000000003,0)" xlink:href="#bE"/><use transform="matrix(0.05,0,0,0.05,36.95,0)" xlink:href="#bq"/><use transform="matrix(0.05,0,0,0.05,46.95,0)" xlink:href="#bx"/><use transform="matrix(0.05,0,0,0.05,55.95,0)" xlink:href="#bx"/></g><path fill="#5f6572" d="M241-173c-1 82-78 91-166 86L58 0H6l48-248c87 0 188-12 187 75zm-53 2c0-43-48-36-90-36l-15 80c50 0 105 7 105-44" id="cr"/><path fill="#5f6572" d="M144-137c-1-29-70-35-71-2 16 41 103 10 103 80C176 9 79 16 32-9 18-17 9-31 4-48l44-6c3 32 80 36 82 1-15-42-103-11-103-82 0-77 157-79 161-8" id="cs"/><g id="ag"><use transform="matrix(0.09938271604938258,0,0,0.09938271604938258,0,0)" xlink:href="#cr"/><use transform="matrix(0.09938271604938258,0,0,0.09938271604938258,23.85185185185182,0)" xlink:href="#bM"/><use transform="matrix(0.09938271604938258,0,0,0.09938271604938258,45.6166666666666,0)" xlink:href="#cs"/><use transform="matrix(0.09938271604938258,0,0,0.09938271604938258,65.49320987654312,0)" xlink:href="#ci"/></g><g id="ah"><use transform="matrix(0.08086419753086417,0,0,0.08086419753086417,0,0)" xlink:href="#bz"/><use transform="matrix(0.08086419753086417,0,0,0.08086419753086417,16.172839506172835,0)" xlink:href="#bw"/><use transform="matrix(0.08086419753086417,0,0,0.08086419753086417,22.561111111111103,0)" xlink:href="#bI"/><use transform="matrix(0.08086419753086417,0,0,0.08086419753086417,37.11666666666665,0)" xlink:href="#bq"/><use transform="matrix(0.08086419753086417,0,0,0.08086419753086417,53.28950617283949,0)" xlink:href="#bx"/></g><path fill="#5f6572" d="M33 0v-38h34V0H33" id="ct"/><g id="ai"><use transform="matrix(0.08086419753086417,0,0,0.08086419753086417,0,0)" xlink:href="#bs"/><use transform="matrix(0.08086419753086417,0,0,0.08086419753086417,20.94382716049382,0)" xlink:href="#bH"/><use transform="matrix(0.08086419753086417,0,0,0.08086419753086417,37.11666666666666,0)" xlink:href="#ct"/></g><g id="aj"><use transform="matrix(0.08086419753086417,0,0,0.08086419753086417,0,0)" xlink:href="#bH"/><use transform="matrix(0.08086419753086417,0,0,0.08086419753086417,16.172839506172835,0)" xlink:href="#ce"/></g><g id="ak"><use transform="matrix(0.08086419753086417,0,0,0.08086419753086417,0,0)" xlink:href="#bS"/><use transform="matrix(0.08086419753086417,0,0,0.08086419753086417,20.94382716049382,0)" xlink:href="#bH"/><use transform="matrix(0.08086419753086417,0,0,0.08086419753086417,37.11666666666666,0)" xlink:href="#bu"/><use transform="matrix(0.08086419753086417,0,0,0.08086419753086417,61.29506172839505,0)" xlink:href="#bu"/><use transform="matrix(0.08086419753086417,0,0,0.08086419753086417,85.47345679012344,0)" xlink:href="#bq"/><use transform="matrix(0.08086419753086417,0,0,0.08086419753086417,101.64629629629626,0)" xlink:href="#bp"/><use transform="matrix(0.08086419753086417,0,0,0.08086419753086417,117.81913580246909,0)" xlink:href="#by"/><use transform="matrix(0.08086419753086417,0,0,0.08086419753086417,125.90555555555551,0)" xlink:href="#bx"/></g><g id="am"><use transform="matrix(0.07469135802469133,0,0,0.07469135802469133,0,0)" xlink:href="#bS"/><use transform="matrix(0.07469135802469133,0,0,0.07469135802469133,19.345061728395056,0)" xlink:href="#bH"/><use transform="matrix(0.07469135802469133,0,0,0.07469135802469133,34.283333333333324,0)" xlink:href="#bu"/><use transform="matrix(0.07469135802469133,0,0,0.07469135802469133,56.61604938271603,0)" xlink:href="#bu"/><use transform="matrix(0.07469135802469133,0,0,0.07469135802469133,78.94876543209874,0)" xlink:href="#bC"/><use transform="matrix(0.07469135802469133,0,0,0.07469135802469133,93.887037037037,0)" xlink:href="#bp"/><use transform="matrix(0.07469135802469133,0,0,0.07469135802469133,108.82530864197527,0)" xlink:href="#bw"/><use transform="matrix(0.07469135802469133,0,0,0.07469135802469133,114.72592592592588,0)" xlink:href="#by"/><use transform="matrix(0.07469135802469133,0,0,0.07469135802469133,122.19506172839502,0)" xlink:href="#cp"/></g><g id="an"><use transform="matrix(0.07469135802469133,0,0,0.07469135802469133,0,0)" xlink:href="#bX"/><use transform="matrix(0.07469135802469133,0,0,0.07469135802469133,17.92592592592592,0)" xlink:href="#bH"/><use transform="matrix(0.07469135802469133,0,0,0.07469135802469133,32.86419753086419,0)" xlink:href="#bx"/><use transform="matrix(0.07469135802469133,0,0,0.07469135802469133,46.30864197530863,0)" xlink:href="#by"/><use transform="matrix(0.07469135802469133,0,0,0.07469135802469133,53.777777777777764,0)" xlink:href="#bx"/></g><path fill="#5f6572" d="M141 0L90-78 38 0H4l68-98-65-92h35l48 74 47-74h35l-64 92 68 98h-35" id="cu"/><g id="ao"><use transform="matrix(0.05,0,0,0.05,0,0)" xlink:href="#cq"/><use transform="matrix(0.05,0,0,0.05,8.950000000000001,0)" xlink:href="#bq"/><use transform="matrix(0.05,0,0,0.05,18.950000000000003,0)" xlink:href="#cu"/><use transform="matrix(0.05,0,0,0.05,27.950000000000003,0)" xlink:href="#by"/></g><g id="ap"><use transform="matrix(0.1055555555555554,0,0,0.1055555555555554,0,0)" xlink:href="#ca"/><use transform="matrix(0.1055555555555554,0,0,0.1055555555555554,25.333333333333297,0)" xlink:href="#bQ"/><use transform="matrix(0.1055555555555554,0,0,0.1055555555555554,48.44999999999993,0)" xlink:href="#bk"/><use transform="matrix(0.1055555555555554,0,0,0.1055555555555554,59.00555555555547,0)" xlink:href="#bk"/><use transform="matrix(0.1055555555555554,0,0,0.1055555555555554,69.56111111111102,0)" xlink:href="#cd"/></g><g id="aq"><use transform="matrix(0.0728395061728395,0,0,0.0728395061728395,0,0)" xlink:href="#bs"/><use transform="matrix(0.0728395061728395,0,0,0.0728395061728395,18.86543209876543,0)" xlink:href="#bH"/></g><g id="ar"><use transform="matrix(0.0728395061728395,0,0,0.0728395061728395,0,0)" xlink:href="#bH"/><use transform="matrix(0.0728395061728395,0,0,0.0728395061728395,14.5679012345679,0)" xlink:href="#ce"/></g><g id="as"><use transform="matrix(0.0728395061728395,0,0,0.0728395061728395,0,0)" xlink:href="#cn"/><use transform="matrix(0.0728395061728395,0,0,0.0728395061728395,13.11111111111111,0)" xlink:href="#bH"/><use transform="matrix(0.0728395061728395,0,0,0.0728395061728395,27.679012345679013,0)" xlink:href="#by"/><use transform="matrix(0.0728395061728395,0,0,0.0728395061728395,34.96296296296296,0)" xlink:href="#bq"/><use transform="matrix(0.0728395061728395,0,0,0.0728395061728395,49.53086419753086,0)" xlink:href="#bx"/></g><g id="at"><use transform="matrix(0.0728395061728395,0,0,0.0728395061728395,0,0)" xlink:href="#bE"/><use transform="matrix(0.0728395061728395,0,0,0.0728395061728395,13.11111111111111,0)" xlink:href="#bt"/><use transform="matrix(0.0728395061728395,0,0,0.0728395061728395,27.679012345679013,0)" xlink:href="#bx"/><use transform="matrix(0.0728395061728395,0,0,0.0728395061728395,40.790123456790134,0)" xlink:href="#by"/><use transform="matrix(0.0728395061728395,0,0,0.0728395061728395,48.074074074074076,0)" xlink:href="#bq"/><use transform="matrix(0.0728395061728395,0,0,0.0728395061728395,62.641975308641975,0)" xlink:href="#bG"/></g><g id="au"><use transform="matrix(0.07407395061728393,0,0,0.07407395061728393,0,0)" xlink:href="#bs"/><use transform="matrix(0.07407395061728393,0,0,0.07407395061728393,19.18515320987654,0)" xlink:href="#bH"/></g><g id="av"><use transform="matrix(0.07407395061728393,0,0,0.07407395061728393,0,0)" xlink:href="#bH"/><use transform="matrix(0.07407395061728393,0,0,0.07407395061728393,14.814790123456786,0)" xlink:href="#ce"/></g><g id="aw"><use transform="matrix(0.07407395061728393,0,0,0.07407395061728393,0,0)" xlink:href="#bE"/><use transform="matrix(0.07407395061728393,0,0,0.07407395061728393,13.333311111111108,0)" xlink:href="#bH"/><use transform="matrix(0.07407395061728393,0,0,0.07407395061728393,28.1481012345679,0)" xlink:href="#bu"/><use transform="matrix(0.07407395061728393,0,0,0.07407395061728393,50.296212469135796,0)" xlink:href="#bu"/><use transform="matrix(0.07407395061728393,0,0,0.07407395061728393,72.44432370370369,0)" xlink:href="#bq"/><use transform="matrix(0.07407395061728393,0,0,0.07407395061728393,87.25911382716048,0)" xlink:href="#bp"/><use transform="matrix(0.07407395061728393,0,0,0.07407395061728393,102.07390395061726,0)" xlink:href="#by"/><use transform="matrix(0.07407395061728393,0,0,0.07407395061728393,109.48129901234564,0)" xlink:href="#bx"/></g><g id="ax"><use transform="matrix(0.0728395061728395,0,0,0.0728395061728395,0,0)" xlink:href="#bz"/><use transform="matrix(0.0728395061728395,0,0,0.0728395061728395,14.5679012345679,0)" xlink:href="#bw"/><use transform="matrix(0.0728395061728395,0,0,0.0728395061728395,20.322222222222223,0)" xlink:href="#bI"/><use transform="matrix(0.0728395061728395,0,0,0.0728395061728395,33.43333333333334,0)" xlink:href="#bq"/><use transform="matrix(0.0728395061728395,0,0,0.0728395061728395,48.001234567901236,0)" xlink:href="#bx"/></g><path fill="#5f6572" d="M203-218l-32-5v-13h84v13l-30 5V0h-21L59-189v171l32 5V0H7v-13l30-5v-200l-30-5v-13h81L203-85v-133" id="cv"/><path fill="#5f6572" d="M90-170c54-1 76 32 76 87 1 56-23 87-77 87-53 0-75-32-75-87s23-86 76-87zM89-14c28-2 26-38 26-69s3-69-26-69c-27 0-24 39-24 69s-3 66 24 69" id="cw"/><path fill="#5f6572" d="M127-114c3-31-26-38-50-25v123l15 4V0H10v-12l16-4v-133l-16-5v-11h64l2 14c31-23 102-32 102 30v105l17 4V0h-82v-12l14-4v-98" id="cx"/><g id="aA"><use transform="matrix(0.07407395061728389,0,0,0.07407395061728389,0,0)" xlink:href="#cv"/><use transform="matrix(0.07407395061728389,0,0,0.07407395061728389,19.18515320987653,0)" xlink:href="#cw"/><use transform="matrix(0.07407395061728389,0,0,0.07407395061728389,32.51846432098763,0)" xlink:href="#cx"/></g><path fill="#5f6572" d="M92-112c43 4 61-13 61-54s-18-54-61-50v104zm118-54c0 63-50 78-118 74v74l39 5V0H8v-13l28-5v-200l-30-5v-13c88 3 205-20 204 70" id="cy"/><path fill="#5f6572" d="M132-132c-21 0-37 9-50 16v100l26 4V0H10v-12l21-4v-133l-21-5v-11h69l2 34c17-18 35-41 71-40v61c-17 3-14-14-20-22" id="cz"/><path fill="#5f6572" d="M12-83c0-55 22-85 75-86 52-1 66 33 63 88H64c-1 37 6 64 44 63 14 0 28-4 39-6 3 28-28 25-55 27-57 4-80-31-80-86zm90-17c2-26 0-63-27-48-10 9-11 28-11 48h38" id="cA"/><path fill="#5f6572" d="M126-114c3-31-27-37-49-25v123l15 4V0H10v-12l16-4v-133l-16-5v-11h64l2 14c24-16 81-33 96 3 30-24 105-39 105 27v105l17 4V0h-82v-12l14-4v-98c4-33-27-37-51-24 5 35 0 82 2 122l17 4V0h-83v-12l15-4v-98" id="cB"/><path fill="#5f6572" d="M77-16l18 4V0H8v-12l18-4v-133l-17-5v-11h68v149zM51-196c-16 0-27-10-27-27s10-27 27-27 27 11 27 27c0 17-10 27-27 27" id="cC"/><path fill="#5f6572" d="M73-51c-3 31 27 38 51 25v-123l-16-5v-11h66v149l17 4V0h-65l-2-14C94 9 22 18 22-44v-105l-17-5v-11h68v114" id="cD"/><g id="aB"><use transform="matrix(0.07407395061728389,0,0,0.07407395061728389,0,0)" xlink:href="#cy"/><use transform="matrix(0.07407395061728389,0,0,0.07407395061728389,16.22219518518517,0)" xlink:href="#cz"/><use transform="matrix(0.07407395061728389,0,0,0.07407395061728389,27.481435679012325,0)" xlink:href="#cA"/><use transform="matrix(0.07407395061728389,0,0,0.07407395061728389,39.25919382716046,0)" xlink:href="#cB"/><use transform="matrix(0.07407395061728389,0,0,0.07407395061728389,61.40730506172834,0)" xlink:href="#cC"/><use transform="matrix(0.07407395061728389,0,0,0.07407395061728389,68.81470012345673,0)" xlink:href="#cD"/><use transform="matrix(0.07407395061728389,0,0,0.07407395061728389,83.6294902469135,0)" xlink:href="#cB"/></g><path fill="#5f6572" d="M102-142c-14-17-68-15-54 18 24 26 83 17 83 72 0 62-72 62-120 47v-45h12c4 23 16 37 43 37 35 0 39-37 9-46-31-9-65-19-64-61 0-52 59-55 108-45v43h-11" id="cE"/><g id="aC"><use transform="matrix(0.07407395061728389,0,0,0.07407395061728389,0,0)" xlink:href="#cD"/><use transform="matrix(0.07407395061728389,0,0,0.07407395061728389,14.814790123456778,0)" xlink:href="#cE"/><use transform="matrix(0.07407395061728389,0,0,0.07407395061728389,25.18514320987652,0)" xlink:href="#cA"/><use transform="matrix(0.07407395061728389,0,0,0.07407395061728389,36.96290135802466,0)" xlink:href="#cz"/></g><g id="aD"><use transform="matrix(0.09259246913580242,0,0,0.09259246913580242,0,0)" xlink:href="#bs"/><use transform="matrix(0.09259246913580242,0,0,0.09259246913580242,23.981449506172826,0)" xlink:href="#bH"/><use transform="matrix(0.09259246913580242,0,0,0.09259246913580242,42.499943333333306,0)" xlink:href="#ct"/></g><g id="aE"><use transform="matrix(0.09259246913580242,0,0,0.09259246913580242,0,0)" xlink:href="#bH"/><use transform="matrix(0.09259246913580242,0,0,0.09259246913580242,18.518493827160484,0)" xlink:href="#ce"/></g><g id="aF"><use transform="matrix(0.09259246913580242,0,0,0.09259246913580242,0,0)" xlink:href="#bV"/><use transform="matrix(0.09259246913580242,0,0,0.09259246913580242,22.22219259259258,0)" xlink:href="#bG"/><use transform="matrix(0.09259246913580242,0,0,0.09259246913580242,40.74068641975306,0)" xlink:href="#bx"/></g><g id="aG"><use transform="matrix(0.09259246913580242,0,0,0.09259246913580242,0,0)" xlink:href="#cq"/><use transform="matrix(0.09259246913580242,0,0,0.09259246913580242,16.574051975308635,0)" xlink:href="#bt"/><use transform="matrix(0.09259246913580242,0,0,0.09259246913580242,35.09254580246912,0)" xlink:href="#br"/><use transform="matrix(0.09259246913580242,0,0,0.09259246913580242,46.111049629629605,0)" xlink:href="#bW"/><use transform="matrix(0.09259246913580242,0,0,0.09259246913580242,64.62954345679009,0)" xlink:href="#bq"/><use transform="matrix(0.09259246913580242,0,0,0.09259246913580242,83.14803728395057,0)" xlink:href="#by"/><use transform="matrix(0.09259246913580242,0,0,0.09259246913580242,92.40728419753081,0)" xlink:href="#bq"/><use transform="matrix(0.09259246913580242,0,0,0.09259246913580242,110.9257780246913,0)" xlink:href="#bG"/></g><g id="aH"><use transform="matrix(0.09259246913580242,0,0,0.09259246913580242,0,0)" xlink:href="#bA"/><use transform="matrix(0.09259246913580242,0,0,0.09259246913580242,25.92589135802468,0)" xlink:href="#bq"/><use transform="matrix(0.09259246913580242,0,0,0.09259246913580242,44.44438518518516,0)" xlink:href="#bH"/><use transform="matrix(0.09259246913580242,0,0,0.09259246913580242,62.962879012345645,0)" xlink:href="#bW"/><use transform="matrix(0.09259246913580242,0,0,0.09259246913580242,81.48137283950612,0)" xlink:href="#br"/><use transform="matrix(0.09259246913580242,0,0,0.09259246913580242,92.49987666666661,0)" xlink:href="#bt"/><use transform="matrix(0.09259246913580242,0,0,0.09259246913580242,111.01837049382708,0)" xlink:href="#cf"/><use transform="matrix(0.09259246913580242,0,0,0.09259246913580242,129.53686432098758,0)" xlink:href="#bZ"/><use transform="matrix(0.09259246913580242,0,0,0.09259246913580242,148.05535814814806,0)" xlink:href="#cp"/></g><g id="aI"><use transform="matrix(0.05,0,0,0.05,0,0)" xlink:href="#bR"/><use transform="matrix(0.05,0,0,0.05,12.950000000000001,0)" xlink:href="#bt"/><use transform="matrix(0.05,0,0,0.05,22.950000000000003,0)" xlink:href="#by"/><use transform="matrix(0.05,0,0,0.05,27.950000000000003,0)" xlink:href="#bq"/></g><g id="aJ"><use transform="matrix(0.05,0,0,0.05,0,0)" xlink:href="#bH"/><use transform="matrix(0.05,0,0,0.05,10,0)" xlink:href="#ce"/></g><g id="aK"><use transform="matrix(0.05,0,0,0.05,0,0)" xlink:href="#bX"/><use transform="matrix(0.05,0,0,0.05,12,0)" xlink:href="#bC"/><use transform="matrix(0.05,0,0,0.05,22,0)" xlink:href="#bD"/><use transform="matrix(0.05,0,0,0.05,32,0)" xlink:href="#bY"/><use transform="matrix(0.05,0,0,0.05,35.95,0)" xlink:href="#bw"/><use transform="matrix(0.05,0,0,0.05,39.900000000000006,0)" xlink:href="#bx"/><use transform="matrix(0.05,0,0,0.05,48.900000000000006,0)" xlink:href="#bZ"/><use transform="matrix(0.05,0,0,0.05,58.900000000000006,0)" xlink:href="#bw"/><use transform="matrix(0.05,0,0,0.05,62.85,0)" xlink:href="#bp"/><use transform="matrix(0.05,0,0,0.05,72.85000000000001,0)" xlink:href="#bW"/></g><g id="aL"><use transform="matrix(0.05,0,0,0.05,0,0)" xlink:href="#bB"/><use transform="matrix(0.05,0,0,0.05,12,0)" xlink:href="#bC"/><use transform="matrix(0.05,0,0,0.05,22,0)" xlink:href="#bD"/><use transform="matrix(0.05,0,0,0.05,32,0)" xlink:href="#bx"/><use transform="matrix(0.05,0,0,0.05,41,0)" xlink:href="#bE"/><use transform="matrix(0.05,0,0,0.05,50,0)" xlink:href="#br"/><use transform="matrix(0.05,0,0,0.05,55.95,0)" xlink:href="#bw"/><use transform="matrix(0.05,0,0,0.05,59.900000000000006,0)" xlink:href="#cf"/><use transform="matrix(0.05,0,0,0.05,69.9,0)" xlink:href="#by"/><use transform="matrix(0.05,0,0,0.05,74.9,0)" xlink:href="#bw"/><use transform="matrix(0.05,0,0,0.05,78.85000000000001,0)" xlink:href="#bH"/><use transform="matrix(0.05,0,0,0.05,88.85000000000001,0)" xlink:href="#bp"/></g></defs></g></svg>